/* XPM */
static char *tree[] = {
"128 128 5 1","a c #FFFFFF"
". c #FFFFFF"
"x c #013220"
"o c #228B22"
"# c #4B3621"
/* pixels */
"                                                      ..   ooxxxxxxxx    .                                             .  .     ",
"                          .                             .  xxxxxxxxxx            .               .                              ",
"      . .       .                                          xxxxxxxxxx               .                                           ",
"                   . .                   .         .       xx.xoxxxxx                                             .             ",
"      .                 .                         .        xxxxx.xxxx                                 .         .               ",
" .   .                                 .               .   xxxx.xxoxx                                                   .       ",
"                                         .         .       xxxxxxx.xx               .                            .      .       ",
".           .                     .                .       xxo.x.x..o                                                 .         ",
"                                           ..              xxxoox.xxx                     .                        .       .    ",
"  .                                 .                 .    xxx.xxxo.x                                              .            ",
"    . .                       .                            oxx.xxxxox                                          .                ",
"                  .      .                             ..  xxoxxxxxxx .                                                         ",
"                        .                                  xxxxxxxxxxx     .                                                .   ",
"                                                           xxx.oxxxx.o              .              .           .           .    ",
"   .                     .          .                     xxxxxxxxx.xx                 .                                      . ",
"            .                          .                . xxxxx.xxxox..                              .       .                  ",
"                                                          x.xxo.o.xxox.    .       .     .                  .   .               ",
"             .                                .   .      xxxxxx.xxxxoxx                               .      .                  ",
"                      .                                  xxxxoxxoxxxxxx    .         .          .                      .        ",
"                              .     .       .          . xxxoxxxxoxxxxxx                                                        ",
"        .                               . .             ooxxxxxxxoxx.oxx                                       .                ",
"  .     .  .         .                 .                xxxxxx.xxxxxxxxx                                                        ",
"        . .                       .                     xxxxxxxxxxxoxxxxx          .                                            ",
"        .                         .                     xxxxxxxxxxxxxxxxx               .                      .                ",
"  .                                                   .oxxxxxx.xxxxxoxxxx.                    .                                 ",
"  .                 .  .               .               xxxxxxxoxxxxxxxxxxx .                                                    ",
"            .   .                                      xxxxxx.xxxxxxxxxxxo                                 .                 .  ",
"              .           .                           xxxxxxxoxxxxoxxxxxxx.   .                                     .           ",
"       .                                 .            xxxxx.xxxxxoxxxxxoxx            .               .                         ",
"   .        .             .  .                        xxxxxxxxxxx.xxxxxxxxx                                                  .  ",
"              .      .        .    .                 .xxx.xxxxx.oxoxxxxxxxo                                                   . ",
"                             .          .         .  oxxxxoxxo.xxx.oxx.xxxo                                             .       ",
"                 .    .         .                    x.xoo.xxxoxx.xxxxxxx.xx                                 .  .               ",
"   .                          .     . .              .xox.x.xxxxxxxxoxxxxxx.                                                 .  ",
"     .                    .                         .o.xoxxxxxxxxxxoxxxxooxx                         .                          ",
"               . .           .          .           xxoxx.xxxxxxoxxxxxxxxxxxx                                                   ",
"     .                                            . x.xoxxxxxxxxxoxooxxxxxxxx  .                      .                         ",
"                .   .   .                          x.xxxxxxxxxxxxxx.xxxxxxxxx                                       .           ",
"                                     .             o.xxxxxxx.oxxxxxoxxxxxxxxx              .           .             .          ",
"                           ..        .             xxxxxxx.xxxx.xox.xxoxx.xxxx                         .                        ",
"            .                          .          xxx.xxxxoxxxxxoxxxxxxxxxxxx.                                                  ",
"                    .   .      .                  ooooxxx.xoxxxxxxoxxxx.xxxxox                                     .            ",
"            .                                     xxxxxox.xxoxxxxxxxxxxxx.xxoxx                                        ..       ",
"                                                  xxxx.xxxxxxxxxoxoxxxxxxxxxxxx  .          .           .      . .              ",
"                                  .           .  xxxxxxxx.xxoxxxxx.xx..xx.xxxxx                              .                  ",
"                 .       .   .               .   .xooxxxxxxxxxxxx.xxxxxxxxxxx.xx                                                ",
"                           .                     xxxxxxoxxxxxxxxxxxxxxxxxxxxxxxo  . .                                           ",
"             .       .                       .  xxxxxxxxxxxx..xxx..xxxxxxoxxxxxx             .                                  ",
"             .                            .     xxxxxo.xxxoxxxxxxx.ooxoxoxx.xoxx                .            .                  ",
" . . .         .                                xxxxxxoxooxxxoxxxxxxxxxoxxx.oxxxo                                        .      ",
"                          .           .        oxoxxxxxxxxoxxxxx.xxxxxxx.xxxxxxox                    .        .                 ",
"            .           .     .                xxoxxxxxxxxxoox....xxxxxxxxoxx.x.x               .                               ",
"                                               xxxxxxxxxxxoxxxx.xxxxoxxxxxx.xxxxx.           .       .              .  .   .    ",
"      .          .                             xxxxxxxxxox.o.xxxxx.xxxxx.xxxxx.oxx        .                               .     ",
"    .                                         xxoxxxxxxoxxxxx.xxxoxxxoox..o.xxoxx.                         .                .   ",
"              .        .                      oxxxxxoxxox.xxxxxxoxxxxoxxxxxxxoxxxxx                                  .          ",
".                             .  .            xoxx.xxxoxoxxxxx.xxxxx.x.xxxoxxxxxoxx               .                             ",
" ..                                          oxxxxxxxxxxxoxxxxxxx..xxxxxxxxxx.oxoox                         .                   ",
"                      . .                    xxxx.o.xxxoxx.xxxxxxxxxxxxxxxxxxxxx.xx                    .          .             ",
"  .                      .                   xxoxxxxxxxoxxxoxxxxxxxoxxxxxx.xxoxxxxxx               .             . .            ",
"          .                                 xxxxxxxxxxxx.xoxxx.xxxx.xxx.oxxxxxxxx.x.        .         .         .               ",
"     .            .                          xxxxxxxxxoxx.xxxxxxxxxxxxxx.ox.oxxxoxxx              .                             ",
"   .                        .                xxxxxxxxxo.xx.xxx.x.xxxxxxxxxx.xxxxx.x  .                             .      .     ",
"        .       . .                .         xxxxoxxxxxxxxxxxxxx.xxx.xxxxxx.xxxxxxx                                             ",
"                   . . .            .    .    xxxxxxxoxx.xxxxxx.ox.xx.xxo.ox..xxxox                                             ",
"               .  ..    .                     xxxo.xxxxxxxxxxxxxoxxoxxxxxxx.xox.xxx                                             ",
"     . .                                      xxxxxoxxx.xxxxxxxx.x.xxo.xxxxxx.xxxx         . .                     .            ",
"         .        .                            xxxxxxxxoxxxxxxxxxxxxxxx.xxxx.oxoxx                       .        .             ",
"                           .             .     xxxxxxxoxoxxxx.xxxoxxox.ooxxxoxxxxx    .          .                              ",
"  .   .            .                         . xxxxxxxxxxxxxoxxxxxxxxo.x.xxx.xxxx                                               ",
"                       .        .              .xxxxxxxx.xx.xx.oxxxoxxxxoxxxxoxxx                                               ",
"                     .                          xxxxoxxxxxxxxxoxxo.xxxxxxxxx.xxxx         .               .                ..   ",
"         .      .                  .            .xxxx.xoxoxxx.xxoxxxxxxxxxxxxx.x                   .                            ",
"                                                xxxxoxxxxoxxxxxxoxxoxx.xxo.xoxxx    .                                 .         ",
"                     .                    .      xxxxxoxxxxxxxoxoxxxx.xoo.oxxxxx      . .      .                                ",
"                        .                        xxx.xoxxxx.xxoxxxxxx.oxxxoxxxox   ..     .                                     ",
"                                                 xxoxxoxxxxxxxxxxxxxx.xxxxxxxx..           .         .                .         ",
"                        .                         xxxxx.xxxxxxxxxxxxx.xxox.xxxx        .                       .                ",
"                                        .         xxxxxxxxxxxxxxxxxxxxx.xxx.xxx.                       .                     .  ",
".                                                 xxxxoxxxx.xoxxxxxoxxxx.xxxx.                                   .              ",
"                .       .   .                     oxxxxxxxxxoxoxxxxxxxxxxoxxxx.                        .                        ",
"         .                                    .    xxoxxox.x.xxxxxoxoxxoxxxxx.   .                            .                 ",
"     .   .                           .             oxxxxxoxox.xxxxxxxxxxxxxxx                                .                  ",
"                                  .                x.xxxx.xxxxxxxxxxx.xoxxx..              .         .                          ",
"                                       .            oxxxxxxx.oxxxx.xx.xxxxxxx   .                                           . . ",
"  .                    . .               .          .xxxxxxxx.xxxxxxx.oxxx.xo                                                   ",
"       .    .                      .                x..xxoxxxxxxxxxxxxxxxxox                                              .  .  ",
"                     .                       .       xoxxxoxxxox.xxxoxxx.xxx                    .                    .          ",
"                                                     xxxxxxxxxxxxxxxoxxxxxo.        .  .                           .            ",
"   .        .                .                .      xox.xxxxxxxxxx.xxxxxxx                                                     ",
"      .           .                             .                                   .  .                                        ",
"                                                            ########    .                  .         .       .       .          ",
"              .            .                                ######## .     .                   .                                ",
"           .                                            .   ########  . .                                                    .  ",
"                                     .                      ########  .                 .         .                 .           ",
"      .                             .             .    .    ########                            .                               ",
"       .               .        .                           ########            .                .                              ",
"                                                      .    .########               .                                         .  ",
"         .                               .            .     ########                              .                         .   ",
"                    .                           .           ########                              .     .     .                 ",
"     .     .                              .                 ########          .           .                                     ",
" .          .                  .            .               ########             .                                              ",
"                                                         .  ########  .                 .                       .               ",
"   .                                                 .      ########.                                                .        . ",
" .                   .                                      ########.               .                                           ",
"                          .             .                   ########                                .         .                 ",
"           .            .          .          .             ########                                                         .  ",
"                            .        .                      ########                  .          .      .                       ",
"            .   .                 .            .            ########                     .                                      ",
"        .     .              .         .                    ########          .                                                 ",
"                                                      .     ########                    .                   ..                  ",
"           .                                    .           ######## .                        .                                 ",
"       .                           .          .             ########                .              .                            ",
"                                     .         .            ########                                    .  .   .                ",
"          .                                              .  ########     . .                                                    ",
"                                          .        .        ########                                .          .                ",
"                  .          .                              ########         .    .                    .                        ",
"                  .       .                                 ########              .                              .         .    ",
"              .       .               .                     ########   .                       .                                ",
"                  .                      .  . .             ########                                  .                         ",
"                                .    .                 . .  ########                                                            ",
"                                          .                 ########   .                                   .   .     .          ",
"           .                       .  .          .          ########                                 .                          ",
"               .  .          .      .       .               ########                                                            ",
" .                 .                          .             ########                 .  .                                       ",
"  .              .                             .    .       ########                                                 .          ",
"        .                                                   ########   .       .              .        .                        ",
"                            ..      .       .               ########                                             .              ",
};