/* XPM */
static char *snow_floor[] = {
"128 128 4 1",". c #FFFFFF"
"x c #F0F0F0"
"o c #E0E0E0"
"# c #D0D0D0"
/* pixels */
"..ooo..x#..#o...x....o.oo.o.xxxoooo....ox.x.o.xoxx.xo.....x..x.#.o.o..#.....o.....o.xox.xooxx.x#.#.....##xxo...o.oxo.o.ooo..o##o",
".o.o.x..o.oxo.o.x.o.x.oo.oo.xox..o.o.#.o#...o.oxo#.ox.ox.x#.oo.##xxx.x.#...ox.....oxoo..ox.o..xox.xo.o..o..xox.#.o#x..x#..ooo..o",
"o.oxxo....oxx...#o.xxo.oxx.o..x..xx.o.x...x.x#xxx.x.xxo.x..x.o.xxo..#.oxxxo.o....xx....o.#x...o.xxx.oxo.x#.o.........o.oo....oxo",
"x..#x..ox.x..x.xoo..x.#...ox.#xoo#x.ox....x...ox#....#........#x.#.x#..##.o#o....o...oxx#........x.x.o.o.xxx.o#.#.x.o....oo..xo.",
".x#.o...x..#...oxo...ox.......xx.o.x...x......oox.#xxxx##.#.o..o.#...x#..o....xxx...#.x##...#..x.....o...xo.ox..o.....o..o.o...x",
"x.#.#xoo#ox#.xx#xx#xo..o..#.x#.x.o...x#..xxo.o....o.##.xxxxoo.x.#xo.o##..xx..xo.o.o....#....xoox.o#..x..x...o..o.x....o.o#xoxo#o",
".o.o.......o#.oxoxo.o#xxx.x.x...xx#...##x#.#.xo..#.x.o..o.o.o...#ox.x#.......oox..ooxo...x#x.xo....ox...o.ox.#..ox..#.xxoo.o.xxo",
".xo.ox...o.x.o.ox..ox..#xxox.....x.x....o...o.o..x.x.ox......#x.o#xx...oo.ox.o.x.x..xo#xx#x....o.o.o..oxxxx.x..ooxxxoo.x...o..x.",
"o...x.x...o.x#.#.......xx...x.x.xoo#o.o#.ox#.o....ooo.o..oxxxx...##oo..x..#xx..x.x..#..#o#..x#o.##x.xx.#x.#..o.o..#.xxx.......#o",
"ooox.#o#x.xox.....#..ox.ox...o..o...oox..#xo..##ox.xo#x.#.....o#xo.xox....oox.ooox.#...#xo...x.......o......o.oxo.o..#x#.xo#..xx",
"oo...#oo..o.#x.xo.o#ox...#xx#o...o#xo..#..x...ox...o..oo..o.#....x..o#..x..#.....x...oxxo..o....x....#.o...#..#ox.xxoxx..#..o...",
"o..x....ooo#.oo..xo#x....oo.o.#x#x.o...#oo...ox.xo..o#.x..o...o.x..xo....oxx.x..x#x#.xox#oo.#..#.......xx.xo.o#.oxo.xox..o.x..x.",
".xxox..x.#x.xo.o.x..ox.#xo.x#o.ox..xo#o..oo...o..oxxxoxo..oxx.##....oox.#.xx.xoo..x.#..oo...o...oo#...x#.ox.....#.x.oxo.#.x#o.#.",
"...o...xx.o.....o.oo.xo..xx.o..xo.xx.xxo##xo..#xo#.#.x..o.xxx..xox.#.x.x..#.#x.x....o..xo.#.ox.#.oxx##o#...o.##.ox..#x..o#...oo.",
"o..ox.x.#..xx..o.....oo....o.o.#xx...x.x....#oxo..x#ox...o......o.x.oo.....x..xo..x.oo.oo..##xox...x#oxo#..x...x..#x#x#x##.oxo.o",
".o#o.ooo.x.o#.##.x.x.#oxo.x...x#x..ox.oo.x.o..xx..ox.xo...ox...o........#xo.xx.xx..o.#.x....#.#x.x#o.o.........#x....o........x.",
".o...x.o..oxxo...x..ox....xxo#.x..#x.xo.o....ox.x.xoo.x....o.xo.oo.xx.....oo#xx.x......xo#..xo.......#xxo#o..xo#o#.o.o..#.....#x",
".o.xox.o..o.o.xx#..ox.....x.#.o..#....x.x..o...#.oxoo.o..xo.xoox.ooo...oxxox.o....#oo.o..xo.oo.xox.xox.x..x.oox#.o....x....o.oo.",
"..xo.xo#.x...#o#xoxx..ooo.xo..x.#o.....xooox.oooo.#...x...x....xx.xo##ox...xo.o.xo.#..x.#.#o...o..xx#..o.x##....o..xxo...#o...x#",
".x.#x.o.oxx..o..o.oxxooo.x...x#xo.xxo....o#..#o..#.xx.o.o.xxoo.xx..o..#.x.x..o.o.x.o.o..#o.o...xx..#.x..x.x.xo.x..x#..#o....x.x.",
".o.x.x.o.x....oxx.#.x...x#.xox.o#..#..xxoo.ooo..x....#.o.x.oxx...xx.o#..o.x.#..xo..ox......x...o#.#.o.#..x..x.#x..oox.#.x..oo#.o",
"x#xo.x#o..o.....x...oox...ooxo#.x.x.#o.xo.x.#ox.o..x#o..#..xx.o#..xxo..ox.ooo......oo..x#..o.xo.x...o#x...oo.x.ox..x#..o#xo.xx..",
"x.o..#o...xxoo....#xo.o.o.oo.oxx.o..o..o..xx.o.#....xox#......o......#xo.o#x.x.x#x#...o#x.oo..x..#...xx.....o.oo...#.xx#.x.x#.x#",
"......x.x..xo#x#..xxx..#..ox#.o..xx..xx.#x..xxx#.o..oxox...oo..o...o#...x...o.ox.#.o..x....oox.o..x..x..o#o....##..#...#o.....x#",
".x...oo.#...o....oxoo#.....#..oxxx...xx#.o..#x...o..o..o#..o...xoo...xoo.o##o..o#o.xxxx#x##.#xoxx...ox.#.x.......x..##o##o..x.#.",
"o.#x.o.........o.oxo.o.o#ooxx#.o.xo.##o.xox.o....oo.o.xxoo#.#..oo#x.x....#x.#..x..o.#..x.xx....x.ooxx.......o.o.x.x..ox.x.o.x#xo",
"o#.o.oo#...x##oo..oxo...#x..oxo.x#x.#x.o....oo..xxo.#....x#x....x.x.oo..x..o#...oo.....oo#.#o..x##o#.#.oo..xox..o#o.o.xx..xxx.o.",
".x.o#xxo.o##x.#ox#.x..x...x..x.o.#.oo..#x.ox.o.#..x.o.xx.oxxoo....#......oo.#x#.ox.o.ox.#..x....#.o.o..oxxx..#..o.oo.x...o..#.x#",
"..xo.#o...x..#o...xoxoo..xo....xo.ooo.ox..xxo.xxx..x.o...o#...o#...xxx##...o#...o......o......#.o.o#..x..o..xxo.ox....o....x.o.x",
"x.x.o...#...o.x...x....o..o.......#.x...x.xo.o.#ox.oxooo..#.##...oo...o.xo..x.x...x....xx.x...x#ooxoo..x....xxo##xo.x#...ooo....",
"x...xo....x#oo##o.o......#..oxx..o..#o.....o.x.#o.x#.x..x.#o....x.xo..ox.xox..#x....#ox.##o.o.#o..#...x.x..x...#..#..#..xo.#...x",
"oo..x...oo..x.xo..oo.x.ox##o.......#ox.x.x#..ox...o.xo...ox.........xx.##x.xo.#o...xo.x.x...xxoo.x.x...x.x...oxoxo.x..xo..xx.x..",
"o.#...xx.x#x...o.ooo..#...oxx...x.x.x#.x.o..#x..x.o..x....o.xo.x...xox.x#x..ox.x..xx.o..o..ooooo#..oxx.o..ox...xo.xoo.o...#.ox.x",
"..x#..oo...oox#.ox....ox.....#x...x..xo.x.xx..oxoo......#o.#.o.....o..x.oxx.x#.x.x...xo..ooo.#...#o#x..o.o.ox...ox.o.xo...#xoo.x",
"o##.oxoxx..x...oo.o#.o#x..oxo...#x#.xo..#....x.ooo.......o...ox..o.......ox.x.#xx.xo.#.oooxx.xxxoo.#..o##xx..x..#.ox..xxoxxxoo..",
".#x.xox....#...#x#..xxoxx.xx..xx..o#o.x#...xoo.#.x.x.x..oox....xx.oo.x#..x.xx#...oxo...o..x.o.o..o.ox..x.oxo..#x.x..x.xoo.x.xx..",
"...ooo.o.#.x.ox.o#o.ox..xxox..#.xo.#ox...x###oo..oo...ooox.x.....xoo..o..ooo##o....x#..xx.o.x..o....x.oo..x.#o#..xo.xoxo.x....x.",
"x.#xo.#.o#oooxx.##o.......#ox...oo....o.xo.o.#.o.o....#...x.....xoo.#ox.o.xoo....##oxo.x..x..ox#.ox....x..o...xo.x#o#x.x..x....x",
"...oo.xoxxxo.o.....x#x..o#.#x....#.#.x..oo...oo....xxx..#oxo..oo..o#.oxox###.oxx.....#.o..xo.xx#o.o....o.x.xox.x.xo..x#o......x.",
"xo.xx.x#...#xxx#o.x.x..#....o.#..#oo......x..#...x......o.......x..ooxo.x...o...xo..#o.x..#.x.x.x.x.oxoox.ooo..#.xooxo.xx....x.x",
"x.ox..o#.ox...o##o####o########o####o######o##oo##o#o###o#o###o###o##o#o##o####o####ooo###o######o.x.x.#.ox.ooxxoxo.o..o....xxo.",
".o....x.#oo#o#####o####o#####oo###o#####o##oo#o###o##o####ooo###ooo#o####ooo##o##oo#####ooo##o#####o.x....o....#....#o....o#oo#o",
".o.ooo##oo##o#ooo#o######oo#ooo####o#o###oo#########o####o#####o##o#o###o###o####o#o####o####o##o.o#x..ox...xoxxx#oxoxx.ox.oox..",
"xx.xo..#.......xo.#oo#########o######o#oo#####oo#######o##oo###o#o##oo#####o##oo#oooooo#o####oooo#########oo..#.......o.....xxx.",
".x...x#o...x.##o#o##########o##o####o###o#o#ooo#######o#o###o##o#####o####oo###oo##oo##o####oox.oo...#xo#.....xooxxx.ooxox..o..o",
".xxo...o#o.ox.#o#oo####o##o#####o#####oooo##ooo#o#o#o##o#o####oo##oo###o#o#####oo############ox...xo.x#..#x..#.oox.x.x#.oo.ox...",
".xo.x.o###o##oo###o##o#o##oo##o##o######ooo#######o#ooo###oooo#ooo#####ooo##o#o#o#o#o########o#######.oxo..o.ox.......ox#......#",
"o.o...#######oo#oo#####o#######o###o##oo###########o#########o#o##o######ooo###o######o.#oo..#oo.ooooox.x.x.x.oxo.xx.#x.o.##.o.x",
"###o####o##o##oo#o##ooo#####o###ooo#o#o########o##oo####ooo#o###o#######oo####o##oo#########o###xx.xo##....o.#o.x...oo.ooo.xx.x.",
"oo#.....#.###o##o#########o####oo#######o#####o##oo##o######oo#####o#####o#######o#o######oo##o#o#.o.x..oo.#..xxox....#x.oo.o...",
"xx....ooo...x.xo....x.##xx.o.xx.x.o..#.#o.ox..o#..#..o.o.#...ox...o......ox...o#......o.x.x..xo.#...x...#.o#.x.....xxx.xoxx..x..",
".o.o.o.o#o#oo..o.x..ox.#.x..#xxx#ox..o.o.xx..xox....xxo..oooo#.#.ox..o.x.x#..x...o....xoo#x..##oxx..#x.xxoo#..oxo..ox.xoxoo#x...",
"#..xox....##o...x.oo....x....x....#x.x...............o......o.o.o.xoxx..x.oooxx...xo.xo.x..ooxx.x.o...o.x...x....o..o.o#..o#ox..",
".ooo.o....oxoxxx..#.oo#..........oxo.ox...x..x....x..x#xx..x..x........oooox.xx......oo...xxxo.x..o.xoo..#..x..x#..xxoxo.x..x...",
"...xx.x...oo....#.....#.o....o.ooxxxxx...o.o..o...oxo.#xx.ox.#xo..x.o..x...x..x#x.x....x...x..ooooxx...x....x.o#..o#.xx...#..oo.",
".xxo....o.....xo..x#...##..xxxxox.ooox..x.oo.#x#.....oo#.xo.......oox.#o.oo.oo...x.#.xox.#.#.x...x.ooox.xoxx..oo#.o.#..o..ox.xo#",
"..x#x.o#x..x...#xxo.xox.#oo...o..#.....xx#....xx.xo....oxo.o...#.o...o.o.oox..xx.#xx..o.......x.o...o##.x.xo..oxo#xo..x..#.o..o.",
"x..##x.#o#.xxxxoxoxx..#...x...o.o..o.x.ox..o.........x.#..x...x..x.....#o.#.o..oo....o...o.#oo.o.o....xooox...o.o.o...x......#o.",
"..#oxx.xoo..x...o..#.o.oo##..#..x.x.#....ox.o..o.o#xo#xx#..x...o......o.oo.#..oo...#...ooxx..##..o.x..xox..x.ooo..xx...oo.#.o.o.",
"..oo..x##.x........#....o.x..xoo..oo.....x.......xo........ox.....#o.x.o..x..oox#...oxoo.o.x.x.x..o#.o.o..ox...o.xox.x.##..#..xo",
"#.#ox#..o#####o##o#o#o####o#o###oo####o###o#o#oo##o##o##o######o##oo####oo###o#oo##o####o##oo#o#o#o##o#.o.ox##.o#..#oo.oo.x.#.o.",
"xx.oo##ooo#####o#o#o##o###o#o###o#o##oo##o##o##o###########o##o#oo####o##o##o###o#####o#o#o##o##...o.x..xxo.o.#ooo.#.x.x..xo.#.o",
".oo#o#o#o#o#oo#oo#ooo####oo#######o#o#o#o#####o#####oo#oooo#o#oo##o###o#######o##########o##x.....ox..xo....x.x.xox...x..o.x.x.#",
"....x..xo.x.oo########o#o####o####o##oo###o#o######ooo###oo##o#o#o#o####o####o##oo######o#oo#######o....x#..xxoxxo...xo.x#.o.x.o",
".##..#####o####o#o######o###oo###oo##o#o###o#####o###o###o##o##oo##o######oo####o#oo#####oo######.x...oxx..xx.....xo..x...xoxoox",
"##oo#####o###########oo#####o##oo##oo#o#################o###o#########ooooo############o##oo#o##o###...#...o#o..ox..#.#....x.xox",
"...x..x#.#ooxx#oooo###oo#oo####o###o#oo##oo##o######ooo#o######o##########oo#oo##o##o#####o###o.....o#.#o.xo.o......x...o....o.o",
"#.xo....#..x####oo#####o##ooo#o##o#####o#ooo#o##ooo#######o####o########o##o#o####o##o###########o#o#o#o#oo.x.ox.#.xooo..#o..x..",
".#####o#o#o#oo###o####o########o#########o#oo#o#####o##o###o################o#oo#o######.x.xx#.oxx#....o...xox....oo..x.#x......",
"o#oo##oo#o####ooo####o##########oooo##o####o#oo####o####oo#o######oo######oooo#oo#oo###oo##x.o....ox...x....oo.......x.xxx.o....",
".o...xx.x##ox.oo#ox.x....o.o.x..x..x.x.#x#...x#o#o..oxx..xo.xoo#x#xx..o#o..x...x.x...o.o#..x.o#..xx.o.xooo.oxo.x.xox.x.o#..x....",
".o..#o..#.x..#....oooo#.xx...#x.x.o.......o.o##...o.ox..#...o..o.ooox.xx..xx..xoo......x.o.....o.#o.oxo.o.x.x..o...o..o##.#oox..",
"ox....o.ox...x...x#.#.x.....ox.x.x.x.#..xoo.xxxo....oxo#oo...xx.o#....x#....#oxoxx#....xo..##xxo.x.x#o..o.x.oooo...ox.oooo#.....",
".xoo...o.ooo.o.o#.x....o...o........x#.oxo.#.o.xx.x.xo.oxox##xo.x#o#x..xx.#x.....o#.ox.oxxoo..#x.o..ox.o.ooo....o.#..x..xo.#.x.x",
"o.......o#oo.o#o#o....#..ox#x..o..o.##x..o..xx.xoo...x...o..x.oo#x.#.#.o#x.x...xoo.xox.x...#.......oo.x...ox.o.xo.o.#oo#.x.ox##o",
"x..oo.x#oox.o..#...x...oxxx..oo..xx#ox#o.o.x....xo...xoo#x....#....#ox.o.ox..o....xo#.ox...x..xoxxoxxo.o.xox..##......xoo#.xo...",
"..x.x.o...xo...x.xxxxx.o..xo..x.....x......xox.......#...#x..o#..o.xx.x.o....##.oxoxox#..o#.x#o.o...xxx.#.....x...o.o.o#....oo.x",
".....xo.o.#.#..oo..oxxxo..o.o.xo#.o.xo##.o#xxo.xx.#.oo..xx.oxo...#xooxo#...#.x.xxx...xx.x........#..x.o.x..#o.#x..#..o.##x...oxo",
"..x#o....x.#...x...oo#...##.o#..oxo.o.x....o.xx.x#.o.x..o...##o...oo.o.xx.....xo#..x.##..#...xoooxx.#o...o.x.oo.x...x.o.x.x.xxo.",
"o#.x......o..#o#o.#.#x.#.o..o..xoo..x.##.x..x#...o..#.x..#...ox#o..o........xox#.xo..x.o....##.....oooox..o..xx.o#......o...o..o",
".xo#o#o#########ooo############oo#####o#####ooo###o#o#####oo########o#oo#oo###ooo#oo###o#oo#####o##xo.x#x....xo#o.o.x..x.xx....o",
"....x.#####o#######o###o###o#####o###ooo####o##oo##o#oo#ooo#o###o###o###o######oo#####oo#o#..o.x.xxoooxx.xo....x..#xo.xo.....x#.",
"x.xo#oo#########o#o#o#o##oo##o######o#####o####o#o##o#ooo###o##oo##o##o#ooo######oo####o#####o#.oxx.o.ox..xx.....oooo##.xo.oo##.",
"xx..x..#x.xx.oooxo##o#o#oo#o############o#oo####o##o##oo###o#ooo##ooo#oo###o######oo##o##o###o###oo#o#######o#oo#...o##..x...o.x",
"ox#..o####oo##o##o#o#############oo#ooo#o#########o####o#oooo###o##o#####o#o############o####o###xxo.ox.#x.xxx#........ox##o.oo.",
"#####o##o##oo###oo##o##o#o#####o#####o####o#####ooo#o#oo##o##o#oo###o####o#######oo#oo#o..xxxoxo.#o..ox.o...x.o.##....x#x...#xo.",
".xx#xooo...##o####o##ooo##########o#####o#o######o#o##o#oo##oooo#####o###oo#oo##ooo##o####ooo#o##o###o###x.o...x..o.......ooo...",
".x#####ooo#####o####o############o########o###o####o####o####o#o#oooooo###############oo###o..o.#o.......o##.#.oo.ooxox..o..oxoo",
".x#o###ooo#ooo#o##o##oo#o#o###o#######o##o###o###o####o#######o####ooooo#o##o#oo####o#o####o##o..o##.o....x.x.x.o#.x..x#oo...xxo",
"x.x.#...xoxo..xoo.ooo#o#oo###o###oo######oo######oo########o#####o#o###o##o##o##########oo######o#o#oo#o##o##o#ox....o...o......",
"x..x..x.xoo#o..x#..x.ox.o#x..xx.o##.x........xxx.x..x.....o........xo..o....#xo.xo.###o.x.xx..xox.ox.ooxo......xo.#x..xx..x#..xx",
".#...x...#x..x.xxox.o.x.x#xxo.x..oo.xo..#...ooo.#x#.....o#...oox#.xo..xoo#.#oooo#xo....xo.xo..x.x.o.x......#o#o.ox.##x.ox...oxo#",
"..o.#..o..ox......xx#x#x...#.oooo.....xx.o##o...#......o...#oo..x...x..##.x.#..#o.ox.xx.o.x.xxoxo...x.x#ooo..o.o.x..xo.oxo...ox#",
"..x.ox...x....xx.#o#.o.o.xoxx.o#..o#.oo..#x..o....xox.#..xoxo##..oo..xx..x.xooxxo.x...ox.x.o##.o.....#o..o..o.o..x..oo#...ox...x",
".......#o.o.xoo#..#oo.#xoo.xxo.oxo.o.o.#o.o....o.x.x.oxooxxox..xoo##.oo#.xx....xx.xx..o#...x.#.x..#xo.#.o.o..x.ooo..ooo...o..oxo",
".xx..#.....#...xx..o.oo.xoo..#xxx...#xx.#..x.oxx...##oo#.o....o..xx..o....o#.o#x.xx...xx....oo...xo.o.x.x....xoooo..oo...xo.x.oo",
"..#....#...o##xo..xx..x..ox...x.xoxx..o.x.o..x#.ox..ox.#oo..ox#o.x..o.xxx...o..oo..#oxox...xxxoo..xo..xo#x#.x.#x.x#.o.#o.x...xx.",
"x..ox....ox.o.xx#.x.ox..o....ox..##o..ox#o...o.o#.x....xo.o##.o.xo.x.xxxx#ox.o.xxx.x###o.#xo.o.#.o.xxox..oo.#xo.##...o#o.o.oxo.x",
"x...x.o....ox.x#.#.x.#xoooxo......#.o.x..#.oxo.x...o....#xx...#.xxx.xx..ox.x.xo.........o..x#o....oo.xo#...o..x#..o.xox....o.o..",
"...o.......ox...#...#..x.#x..o#.x.x.o.#..........oox.....#.o#o..x..x..o.oox........xo.x.xxo.xo.o.o.o..#.#.o.o..#o.o.o.x.#.o..x..",
".#oox.##x.o#..oo..o...o.o...x..#.xx.xx.#.xo..o.o#..oox...##oxx..oxx.x..xoxx.o#..x.xxo#x.oox.x.x.o.#.x..xooo#.xx.x##.xx...xo.x.#.",
"#x..ooxox....#ooo.oo.##...oxoo..x.#.xx#xx.oo#ox..#.xxo..xo...xx......o..#o...x.x...xox#..o.o.o.##..oxox...x.##o.x###...o.xo..ooo",
".xoox...o.oo##....o#..x.ox.oo#.ox#..x.o....x..oxxoo...xo...o.....x#..o..x...ox.#..xoo....#..#x.xoxx..ox.o#.o..o#....x.#...o.x...",
"xoooxoxo.o.x...xooox.o.#o.x.xx.#..o....xx..oxx.oox..x#.ox#ooo....xoo.....oo.o.x##.x#.xo......x#x....o.oo.oo..oox.##.xxx.o#....xo",
"o.oxo.ooo#.x.o.oo#xo#.#..x..o..xx#....x#.ox.x.#.....o.x.#.o....#.......x.o.xo.#...xooxo..x.xx.#.ox....x.o.#o.oox.#o#o..xox.xx.x.",
"oo.x#...ox.....o##.ox#x..x.x.ox..x.#.#.o..##...o#xo.oo.xoo.xo.o.x...o.o#.x.#..#..o.#.o.oxx....x#x....#.xoo#.o..#.x.x.#.xx..o...o",
"xo.xoo.#.#o.o..x.x..x#ox.#o.....xooo.xxx.xo..xo.x.ooo...o.x..x.o.#.xo.#x.x.o.x....xx..x.ox.x.o...xxoxxo..#ox.#xxo.x.....#..xx.#x",
"o.o..##..o..x#...xx..#o.....xxxx##o.xoo..o..xx..x.#...oox...x..ox.oo.x.o##.oxx.....ox...xoo.ox..#xxx..xoox.oxx#x..ox...#xxoxo..o",
"o.###x.oo.ox...x.xx..#o.x....o...xxx..x..ox#x.#x#x..o#oo#.o....#ooo.x.xo..xxo#x..#o#.ox#x.xoxx..xxo.o.o#xxo.o#.o.#.#o...x.o..xox",
"..x..xxx..x...o..oooxxoo.xoooo..oo.x#xo....o.o.o.x.x.....#.x..x.x#....o..x.x..x#...oxx#.x.#.#.o#x...x#x.x.ooxo.o.xo.xx..#..x.x..",
"#oxx..xo.o#..o...o.o..#...o#x##..#.o..#x.o....oox.o..o..ox.oxxx...xoo.x....#xx.x.x.....xx#o#x.o.x.x.xo.ooo..xxo.#.o.......x.x.#o",
".x.x......oo..#.......o#xoxo#o..x.x#.....oo.o.o#x.x...xx..#o.....o.oo..o.o...ox.o.#..ox......x...x.o..x..o.o.#.x.....x..o..x..##",
"o.xxoxxx.#.....x#...o.o##...oo..x...#...x.xxx....#oooxox....#..x.x....#..xo...#o....oo....o.x.x.o..o..ooxx.oo..oxx.#.xxxo.....xo",
"oo.ox#..x.x.o..#.x.........#x#...xx.x..#x.#......xox#x.....o..ox..x.....x..xo#xoo...oo#...x.x.x.x......xx..o.oo.x...o.xo....x.o.",
"#o........o.#....oo#.x#o#x...oo..o....#..x....oxxx#o.x...#ooo#...x.......x.x.o..xx....x.x...x......##..xo##xx..#.......o#...xx#x",
"o.#o..#..o.##....o.x...x...x.xo.o.xx.#xo#.xoxx.o.o.#xxo..x.x#.#x..x..ooxx.o.x#x....###oo.o.o#.ooo#...#o..o....oo.#x..x.o..x..xx.",
"xo#.x.ooooo.....o....xxoxx.o...#....ox....#o.ox.xoox...oo.xox....#..#oxoo.x#.xxxxo.xxo#o.....o.oxo##...x##.x#x.x.xo..xo.oooxo#o.",
"oo#xx.....#.x.x..x..#x.x..x...#....xoo....o..oxx.o...x..x..x.o.o.......o#.xxo...xoo..o.......x..oo#...o#.xo....x.x...x....x.oo.o",
"o...xo.#oo.#x.x..oo.ox..o..o....xoo...o..oxo.#x...oxx....xxo.oo.x.o.#oo.oox...x...oo.x#o.o.x.#x.xo.#...o.#.o.ooo...#..#o..x.o#.o",
"o.ooo..xxo..x...xxx.o.#.oo.o#.x...oox.xxo.xo.o.o#.xoo..oo.x..ox#xx#o.xx.#.o#o..x.#..xo#.......o#...#.x.o.ox..##xx.#x#o..o......x",
"xo.o..x..xox.....o...ooxo...x.....xxx...x...xo.x..x.o.#.x.o....#..ox..#o..oo#x....o#xox.....x#o.#xo...x.o...#.o.ooo.o.xo.#.o.#o#",
"oo.o#.x#..xx.#.o.oo...........#x##o.......x.....oo#.o.#x.o.xxox....xxoo....o#o..xx.o...o#..xx.x.o..o..o.oo.xxx..o##.o.x..o.oo.xo",
"o#..x.xx.x.xox.o..xx.x...x.#..#x.o....#..oxxx.x.#ox....##x##o..oo..x#..ox......o.xo....##o#....o.o...x#o...#.x..oxo..ox.xx...xx.",
"..x...o#.x....xx#.....oo.....x....o#.ox.x...x...x.#...x..#xo..oxo.x#..#.x##.o.x.o.x.o#xxx.##..x.oox#.#.o..#..o...o..o.o.x.oo.o..",
"o.o.x#.#..oo..#ox...oox.ox..x..x.o..#x.o#o#.xxo.o#.....oo..o.x.oxox#o.xo###x#.x.....#x#.xx.oo##..xo..xxo...xo.o..xo....o#xxo..#.",
".o..#x#o##.#xo...x.xox.oxo.o..x...xx.xo.##o.x#.xx.x.o#.#o.o.oo..#..o.x.ox..x#....x##.ox#o.xoxx..xo#.#x..#.x.x#.o..o#.oo..xoo....",
"#x.o....xoo.o.#.....x..#....o.......o.#o..o..#x...xx..oo#o##xxxx...o.ox..ox.o...x.o#.ox.xo.x#....o..o...xxox...o....o.x......o.#",
"..oox.o##..o.o...x...x#xo...#o.#o...#.#o..#o..oo..oxoox..o..x#..x..o..x.x..o##.oxo.oo..o.#oo.#..o...xo...x.o.#..x..o.xxx#xxooo.x",
};