/* XPM */
static char *image[] = {
"32 32 5 1",
"( c #64461e",
") c #ffffff",
"* c #ffffff",
"+ c #ffffff",
", c #ffffff",
"((((((++(((((**((((((++)(((**(((",
"(((()))+(((((**(((((,,+)*****++(",
"()(())))((((((((((((,,))***((++(",
")))(*)))+((*((((((((*(()(((((***",
"()*+)))))(***(((((**)*)))(((((*(",
"())+))))+(****((()**)(+)))+(,,((",
"())+**(+++***((((()(((+)))+*,,((",
"((())(((+(**)((((((**((()(((*(((",
"((()))((((())((*(**))((((((())((",
"(((())(((((((())***))((((((())+(",
"(((((((,,(+((())((**(()((((((+++",
"(((((((,,+++((((((**()))+((((*+)",
"((**(((++++***(((((((())++(()**(",
"((**((())++***((((((((((+(++))()",
"(**(((*)+++*((((())(((((()++)+))",
"(**(((++++)(((((())(,,((++)(+++)",
"((((())))))(**++(((,,,*((+,,(+*(",
"((()(()))(((**+++*,,,***++,)(***",
"**++)((((((((((++**,((*(++)))(*+",
"**++(++*((,((((+++(((((()+))))(+",
"()*)(+***,,,(,,,++(,,(((+++))+*)",
")))))))**(,((,,,)((,,((**+()+***",
"()()((+++((((++)))(((****+)))+,,",
"**(((((+((())++()(*+(**(+(***,,,",
"**(*((*))(())((((*+++(((((**,,,*",
"((*****))(((((((***+((((((***,(*",
"(+,,((*))(((++((***(())(((**+(**",
"((,,(((((,,(++(((*+(())((((()))*",
"((+(+++)(,,)(((((++((((++((+)))*",
")++++++)(()**((((((((((++))+,)*(",
"))+**()))((**(((((((())(())())),",
")))**(())+(((+++(*)(())(+++((),,",
};
