/* XPM */
static char *image[] = {
"32 32 5 1",
"( c #000000",
") c #b40a1e",
"* c #dc143c",
"+ c #ffffff",
", c #645000",
"((((((((((((((((((((((((((((((((",
"((((((((((((((((((((((((((((((((",
"((((((((((((((((((((((((((((((((",
"((((((((((((((((((()))((((((((((",
"((((((((((((((())))***)(((((((((",
"(((((((()))((())**))+**)((((((((",
"((((((()***)())++**))**)((((((((",
"(((((()*++**))*++***)**)((((((((",
"(((((()*++**))******)*)))(((((((",
"(((((()*****)))))))))))**)((((((",
"((((((()***),())**)),)*++*)(((((",
"(((((((()))(,))++**),)*++*)(((((",
"(((((((()**)(,*++**,)())*)())))(",
"((((((()*++*),*****,)))))())**))",
"(((((())*++*)),***,))**))))++**)",
"(((((()*)**)*),)*),)++**))*++***",
"(((((()**))**),))*,*++***)******",
"(((((())****))(,*,)******))****)",
"((((((())**)))),*,))****))))**))",
"(((((((())))))**,**))**))(())))(",
"((((((((((())+),,))*))))((((((((",
"((((((((((()*)),,)))**)(((((((((",
"((((())))(()))+,,*))))((((((((((",
"(((())**))())*+,***))))(((((((((",
"((())++**))()*,,***)***)((((((((",
"((()*++***)))),,**)*++))))((((((",
"((()******)**),,*))*+))**))(((((",
"((())****))+**,,)))*))++**)))(((",
"(((())**))++**,,((())*++***)*)((",
"((((())))*****,)(((()******)+*)(",
"(((((((())***,,)(((())****))+*)(",
"((((((((())**,,(((((())**))**)((",
};
