/* XPM */
static char *nanakamado_berry[] = {
"128 128 7 1",
". c #FFFFFF"
"x c #F0F0F0"
"o c #E0E0E0"
"# c #D0D0D0"
"r c #FF4500"
"d c #8B0000"
"g c #228B22"
/* pixels */
"..o..o.oox...x..o.x#xx..o#o....xo..o.x..xx#oxx..o.x...#...xox.x...#.#....o...xo...x.oo#.#x.#o.x#..o#ox....x.oxo.o.#.xx..oox#..o.",
".ox.....x#..x#x.o.#.x.#..x..o#...x.xo.x.x..o..o...o....xooox..o.o#x##...#xx.x#.#....x#x.#.o.o.xx.#.x.xox.#.o.o......xx.xo#o..o.x",
"o....ooo#.xxx...ox.xxo..oo.#...oxxo.oxx......oo..#xooxx..ox.ooxx#x...ox.ox.....#..ox.#o..#.....x...x..oo.##xoxo..xo.#..oox..x.o#",
".x..x..ox..#x...x.o.....xo#oxxo.x.xoxo.#xo....o.x...o#xo.#.x..#ox..x.o.#....o.#...ox.#o....xxx..oo.x#....x.......o#...x#.ox#x.xx",
"#..o..x#x#x.xo..xoo..o..#.xo.#xox.o#..o.o..o.x......#o....x.xo..x.x.x.o....x....o.#x.x...#x...xxo.x.o.##..x#.xoxo..x..xx#.o.o##.",
"...oo..x#o.o#.#x#x.o..ooxo.x.......##x.oxxx......ox..oo#o....x....o..#xxooo..#o#...#.oo..oxx.#....ox...oxxox#.....xo#xoo.#.oo..o",
"oo.xo........o.xx..oo......o.o..o..o#x..o.x.x..#ooox..ooox.x..x#x.x.#.x.oo#.x.##xoxx#.#o..#..o..#o.#..#.x...xo.x.#....xox....o.x",
"......o....xo.xo.oo.x..o.#xo..#ox...##.x.x...oox.x.x#x.o...o##o#..x#.oo..x##..x.#ox..o...........o.x..o.o..o.o##x..xx.##.#x.##..",
".oxo.##oo...o..#xx.#o.x.oxoo.x...x.x.#ox.x..o..ooxxx.x......#x..o#.o#o.o.x#x#.#..#.oxx.ox.xoxx..o#...xxo.ox.o..#.oo.ox#.x..xo.#o",
"oo.o..xx.o...ox...oo.ox.##...o..#xx...o..xoo.....oo..#.o.o...o....o.o.x#...ox##x.x#..o..o#o.ooo.o...x#.x#x.o.....xooxxx...x..xoo",
"oo.x.xx.oox.o...o#o.xo.......o.xx..x.xo..#ox..xo....xx...o#o.x.x.#x.#x.oo.x.##oo.x..ooxx..x...x.o..xo#ooox.#o..#..#..o...o##o...",
".#..o.#.x..#.o..#xx.xx..x...x#.x.x..o.xxx.o...#.ooo...o..x#o....o....xo....o..#.#.#.o..#xx#..x..o.......x#...xoo..o....xx..o.o..",
"x.x..o.xx#.xx.o.o.ox..ox.o.ox#ox.xx#oo..#x#.#.xo..xxox#.##...o..#..x.x.....xx...#o#x....oo.o.##..oxoo#...xx#.o#o......x...#...#.",
".#.xo.o.x.oo....oo.....oo....oo.x.x.....x..#o...#xoox#..o#.........ox..#xox....x...oxx.xoxx..x#..xoo.x..xx...o#.#o.x...xox....oo",
"#........o..o#o..oxxxx..o.xo#..oxo..o.x.#..#xo#..xx..ox...x..#.ooo.o....#o...x.x#x..xx........o..o..xo.x.o#.x#xo.xx#.x.xxxo#o..o",
".#.x...#.ox..o..x.o#oo..o.x..xx..ox..x.#.x...xo#......oo#xx.xo.ox..ox.x#ox#.##xxo..x..##x..ox.#x..o#o.o.x..##o.xx.o.xo.#.#.#oo..",
"o...xxoxxxxxoxo..xoooxo#o...o.....xxxo#o#....#..x...#.x......o#o..o.xx..x.#o.x....x..#o#...x.xx...ox....ox.oxo..o#.x#x#.xx#.#.#o",
".oooox..xx.oooo#..xo.xxoxx...o.....#ox..oxxo.xo.#ox.#o..x.###.xox...x......x..#.oo.xx#x.x#xo..xoox.xxo.#...o....oxo.x.x.xxxo.o..",
"x.....xx.o.oo.o.x.#...##....xx.....#.xx..xo....x.ox.#.xx.xx..x.x.o..ooo.o.o.x.x...xxx.x..x.....xo..x..x.##xx..o.xox.o..o.xxxx...",
".x..o........x.o..xo.xoo..oooo#o.....xo...o#o......oxxox.#.o.#...##.oo.xo.xoo##oo.ox..xox..#.xxo....x....o.x.xoxo#xo.o.o.ox.xxxx",
".x.xx.o.ox.x...#..#x.oo...#.x.o#.xox.o.oo..xxxox.x..x.x.....o...x.x.xo......xx..o#..o...xo.oo.....x..x...ox.x.##.xx.ox.xxxo...##",
"oo.xx..oxo..o.o...xo.o.....ox........oxox...x....x...o#x#....o.#xo....o.x.xx...o...o#.#.x..o.x.o.x.oo.ox#..#..oo.#oox#..#o.o....",
"x...#o#o.oo...#..o.xo.xoo.xo.oxox.o.#x.#xo#..o.xox.#.#.xxxoo.x...oox.xx.ox.o.o..o..#.#ox.x#..#oxxo..#.oo.x.o#o.x...#.#x..oxo.x..",
"ooxox.o.x.xoo..x...oo..xo...ox#o..#.o...x.#o..oxo.....o#.xo.o.#o.xxo..oxo#.x.#...#o...o......#x..x...ooo.#oo.x..o.ox#x.ooo.oxo.#",
"..o.x....#x.#o..x.#..xo..o.xx..#.o.oo#oo.x....xxx..xx.o#...o#..#ox.#.xxxxo.x.ox#.x.xxo..#....x.xx..o...xooo..#o......x.x...#.o#.",
".x.o#xx.#....#xo..ooooo..o......x.x##...xo##.xx..x.ooo..oo.xx..x...x...oo..o.oxx....xo.oxoox##....xx...o#.x.#...x....oxo.xx#.o.o",
"..x...xooxxx...ooo.......oxx...x.#..##xxo.ox.o...ox.x..ox.xxo..#...xx.#.......o.#x.xo#x#.xox..#.x...#.oo..x...x.xox.oxxo.xox....",
"...ooo#o#...xxxx#..o.#x.x.x..x.......oo..#x.....xoo#oo.xx.#x..o......#...x...o.ox.x.o...x.o..oo.o#..o.....xoo#x#...xoox.x....oo.",
".o.x..o.o#xxxxoxx.x.xo....o.o#.xxo.xoo........oox..x.....#.#x.#...#.oo..ooo.o........#..o.....x#.o.x#..oox..x.o.xxoxxo.....o....",
"..x#...xo...o.xo.o.oxxo..o.ox.oxo.x...x..o.#...o.#o...oo....x.xo#.#.xo.#..#..o..#.#...x.o..ooxox..#x.#.x..o.x..#ox.ox.....ox..#.",
"oxx.#oo..o.##...x.xoo..o...#x....o.xx...x..x.#oo.x.#xxx...##ooo..x#xxx#o.....#..o.#ooxo..o.oo......o#.oo.x..xoxx.o..x.o...o#...o",
"xo.x..o#x.xo.o..x#.o.o...x.oooo.....x.oxo#...##xxxx.........o...x.....o....x#..#xo.#.o.x.oxo..x..x....x..xoo..#.oox#ox#...xx..#o",
".oo......o..o....o....x.x.oo..x.o.......x.xox.#.#xoo.xo.o.o.o....o.x.o.oo.#o#.x..x...x....##ox.#o#o.o..oxoxxoxx..x..x#ox..#.xx..",
"..x#o........ox.o..#x.xo.o.....x..xx.x.x#...xo.o....ox.o.o...x#..#xxx#o.#x...#o....o#ox.#.o##xoox..x##..xoxo..x.x.x.xxo.o.#..#..",
".x..oxx.oo.#.o....o.o.oxx...#...x#.#ooo..xxox##xoo.x#..o#..x.o..xo#.o..o.#oo.x.o.oxx#..o.x.#...o.xo..xx..x.....x.oo.oo.xo#xxxx..",
"..#...xx...#.#.xxoo.x..#.....ox.#x.xx.....o#..oxxxox#.oox....xx....#ooo.xo.#.oo...x#...xo.o.o.xo...#.o#..o#x.....xx#...xo.o..oxo",
"#.oo.o....xo..oo##x...ox#.x#.o.ooo.ox..x.xo..ooxx#x..##o.x.x.#ooo..ox#o..#.oo....xo...ox.x.#xxo...#oxo..#x..x.oox.x.xxx.x.x..o#x",
"x.oxx.ox..x.ox.#o#o.oxoo.x.xxoxooo..o...#.oxo...##.x#.oo#..xx...#.o....x..x..oo...#x..#o.#x.o..x..o#oxo..oxo#o#x.....xo.xx.oo.oo",
"x.x...#..xx....o....xx..o.........#xo.#oxo.o#x.ox.o.oo.ooo...o..x......xx.#....o..o#.#.o.#x.##...o#...oo...xxx#.....o..xxoxxxxx.",
".o...x..x..#oxo.#oox...o....#oxx.oo.o###o...oo.o..xx....#o.xx..o.x.#.x.ox.x.o.x.o..ooo..o.x..xo.o.#xo.oxx.oox...oo.##o.#o.xo....",
"xo.xxx....xo.x.x.o....#xo......oo.o.x.x#o.ox.xo....o...xxo#.#.oxxx#x.ox#xox..xoxxo.ox.ox..##.o.xo.xo.o#..x#xoox.x#o.oox.o#.o.#..",
"##x.xxx#xoox..xo.xx..#.x.#...#..x.ox.x...#x......o..x.o.o#o#o.x.g#x.....x...x.oo...x..o..#.#.oxxxo..#.....#.xo.x..o..oo.o....#x.",
"#xo#.o.o..#.x..o..x.o.oo.xxx..x..xoo..x.#.oo.xo..xoxx...#..o.xxggg.x...x..x.x.#.....oxx....o.x....oox..x.xx#.oooo..ox...ox#x#...",
"o..#o.#.o.x#...xoox..#...x.o....ooo...xoxxx..o..x#xx..x.o.o...gggggo.o.#.oo....o.ox..o.x.#..xxoo....x..o...oo.xo.ox..#.oo...x#.#",
".x#x.ox###oo....oo...oooox.#xx..x....xxxo.x.xx#.o.#o.xx...o..ggggggg.x.xo.o....o..xx.#o..xo.ox..x#..o......xx..#oo.xxxox..o.x.xo",
"....#.#o#.xxx.#..ooxox#.#..xx#xoxo##.x.oxxx.o.o..#.xx..xxooogggggggggxooo#..x..x.o.oo...o..#.x.x.x.xo....#x.#oo..x.o.x..#.....x.",
"xo#o.o.o.xx.#.x.o.o..#.o.x.o..xoo.x#.xox..o..#.o..x........gggggggggggoo.xoxoo.xo#...o.oox..o..o.x...xx...ooxx#.x..oxx.x.o..x.xo",
"o#o.#o.xo.xx.#..o...x....ooo........x.x#x.#..o..o.o..xoo.xgggggggggggggx#.xx.........oo#xoxx......o.xoxx#o....#..o.o.ox....xx.oo",
".#.o.ox...##o#.........#.x.x#.x.oo#o...xox....x.o..#x.xxoggggggggggggggg.x.....xx.o#.o......xx.#.#oxoxxx...o#....o...oox.o...oo.",
"#x.oxx#.o.x..xo.x#..o..o.x.oo.xxx...oxx.o..oo..oxox.ox.ogggggggggggggggggooo..oox##.oo..o....x.o.xo.x#ooxxoo...o.ox..#.x.x.#oo..",
"o..x.xx.#x..#..o..xox.x..o.o....xox#o.....oxox.oxo..xo...x.o...oo.x.xxx.o..xo.................x.#..o..o.#.x.x.#.x.........o...x.",
"...x.o..xo.x..ooox#.o..x...#oo....o...o.o.....x..o.o.#......x...xxxx......ox.xo..oox.x#.##..x#x...o...x...ox.xxo..oox..x...xxo..",
"o......x....x#..xox..o##..xo.x..x....#oo..ooxxxo.xxx.o....oo.x.x..x..#.#.o#ox#..xo#..o..##oo.x.oo..oxo.....x....x..x#x.x..xx.#..",
".o#x.x..#.o..#.#x#ooxxo.xx.xxo#.#.o..x.#oxx..ooox.oxo..#...oox.x..o.x...x#........o.x.o.#.o..xooox....x....xx.#.o.xoxoo....#..xx",
".....xo...xx.##..o.o.....x.o....x.xooxx##.#ox#x#.x.ooo.#.o#x...x.x.##.o.x...x#..x...oxo.o#xo...o.o..#xx.ox......#.#.#o#.x.oxx.x.",
"#ox....#.o.x..o...#o....xxx.##..##..#x..o.ooxo.#ox....o...x.drrdrrrrrxx.x........x.#x..x..o#xx#...xx...#o.oo.x#..xx...o..xxo.xo.",
".o.o....#.o#o..ox...#x.x.x#..xoo.#o...#...xo.x#.x.oxo.xo.#orrrrrrdrrdrx.oo#x..o...#....#oxoo..o##...x..oox......o##.o..#......o#",
"x.o.xx..x.xo..x..#..xo.##oo..o.#o.ooo...#.ox......ooo.#..orrrrrrrdrrdr......xo.xox.x.xx..x.#x..#.xxxo..o.o..o.oo.xxxx.x.x#xx...#",
"..o..x...x#x.o....o.o.#o....x..x..o.o..xo.x..xoxo.........rdrrdrdrrrrro.x.....o..x....#.xo..oox.x.o.oo.o.ox#.#...xo.oo.o..#x.xoo",
".oox.o....#xxxxo..#x.oox#o.x.xx.#.x.o.xo.xo#xoxxx#ox..ooo.rrrrdrddrrrrx.#..o......oox..ox.xx.....xx..x.o....#xxx.oo...o....x...o",
".x.....xxooox#.o.oxx##....oo.#xo........xx....o#.x#o#...oordrrrrrrrdrro.xx.......x...xx..x..o.x.xox..x#..ox.....xx#x......#...o.",
"x.....o.....o..x.#.#.#.#..o.o.ox..x.o.o.o.x..o.x.x..o#x..odrrrrrrrdddr..#......#.#.....#....oo.....#xx...x..x.#oxoxx..x.x..oxx..",
"#.oxo.#.oo.......o#o..x.#o...ox...o..ooo#..o..xxx..xxx#.x.rrrrdrrdrrrr..o#x...#...#.#..x.#x.ooo..x.o.o.#x..o.xox...#xox#o#oxx...",
".o...o.ooo....o.#.o.#ooo#.x#....xo....o...#.oxo..o...x...odrrrrrrrrrrrx.xoo#x##oxo#o.#.x..x....ooox...#oo.x..xo.x..xo...o..oo#..",
"x#oo#x.x...xo..#o.x...x.xxx...oooxx.#o.oo#.xx.o.oxxx#.#.o#rrdrrrrdrrdd.xo.##x#...#o..#..x.o##.x..ooo#.o..x.#x.oox.oo.xxx..o.#x..",
"..oo.xoo....#x#o.xo.o..o.xx..#.x..x.#.o.xox#o.o..oxo..ox.orrdrddrrrrdroxoo..#...#x.x..#o...o.x#xo#oooxo.xx.#o....x#.oxx.#x...o..",
"#o.x.xo.o.o..x....#o.o.x....#.#o##...#..ox..xx.xo.o#..xx.ordrrrdrdrrrr....xox.x...#.ox.o#...x.xox#.xo....#..ox.x.xo.o.xo..xoxoo.",
".#..#..x.....x..x.oxxox.....ox..xx#xxo#o#....ox.o.x.x#xo..rdrdrrrdrdrr..oo...##..#ox...#....o....o....o..#.x.o.....x..x.#x.x.#..",
".#..xoo...ox#...oxx..o.o#....o..#oxoo.xxoo#xx.ox.....xx..#ddrdrdrrrddd...o.oo.x..#.o#....x......#o.o#..o...#oooo.#ooox..o.o.o..x",
".....o.o.oox.x#..x..ox..ox.#...xx.#o#..#.xooooox#.o#o.##..drrrdrdrrdrr.ooo.x.#.oo.ox.o...o.x...#..#xxx..o.oxx....o..x.o.x.#...o.",
"ox.xxx..x..#.....xx#.o.oo.#..xooo#...oo...xoo.o...oxxoxo..rrrrrrrrddrrxx..oo.#xx#..oo#x..#..o.#x.oxx#xoo.#x..oo.xx.oxo#.#.oo...o",
".....#.oo.#.oo#..ooo...o.xox..x...x.o...oo.xo.x#.xo.o....xrrrddrrrrddrxo..#.#....xx.x#.oxo.oo..oo...xoo#o....#......x#o.#.o..o.o",
".ox..o..#.xoxo..#...#xxx..oo....#.ox.##.oxo.....x.#...#.ooxdddrrrrrrrdox.x.o#.o..x#..oo.o#.xx...xx.o#o#oxxox.o#o...ox..o.....o.o",
"##.xo..ox.o#.x..oo..xox..x..x.x.o#o##...#.oo...xo..#x#..o.oxrrrdrdrdd..o.#.x.#ox..ooox........#o.o...o.o.xox..oo....ox.........x",
"...#...o.oox.xo.#x.o..x.o.xo.o#xoox.x..xx#o....xx..o....xx..x..xo.o...o.o.x#..xxxxoxo.x.x.#....ox.x....ox.x.xx...x#..oo#x..x...x",
"x.....oo..xxx.#o..xx.xo....##..oo..ooo.x..o.x.#.o#xoxx.ox..oo.#.....#.#o.#....ox.x.ox.........oo..o...x..ox.x.o....#x.#.#.##o...",
".#o...o.#.xo.o.xx.ooxo.o...#x..xo....o#x..x..x...xxo...o.x...o.o.o.......x..x..x....o..x.x#xxxooo.#...o.......#.oo..oxo.o#..x..x",
"...ox...#oxooo...x...oo..#oxoo..oxxxoo.##xxox.xox#o..#..x...x..xx..x..oooo.xooxo..o..#o..o..xoxx..x#x..oxoxo.#.x....o....x...x..",
".xxo.o......oxx.xo..#.##.....x.ox..#.o..x.#.oo#..#xo#.o..o#.x..x...#o#x.xo...##x#xoo.x.x....#.o.xxoox#oxx....o.#...#xo.xo.#x..ox",
"..x.#.ox.#.x.xoxo.xo.ooo.oxxx..x.xo.o#o...#.o..o....#.xx.xo.#.x.o.x..##.x...o.o###...xo.o#.xo..x#o#x.ox.oo.ox.xx.x...x..#..x...x",
"oxxo.oo.#....x....x#o.oxxx....xo##o....#x....x..x..o#..x.x.o...o.#o.xo.#.x..oxoxo.x....#oo......x...x.xo......o.o.oo.......x..x#",
"#..xo.xxx#.#x....o.o.o##..xo#x#o.x#..x...x.##x..o.o.#o.#o....ox..x.x.o...x....xx....o.oox.x...#....xo..ox..o.#.x.x..oo.o..x..ox.",
"#.o.x.xx..x...o.#.#ooxo#o..#.o..xox.x.#..x#.x..x.oxo.x.o....xoxxo.o.#o..xo.o#.xx..oo..o.#.x#.o.ox....x.o..o...#...##..x...#.#xx.",
".....ooo...o.xox.oo.#.ox..#o.xx..xxo.ox..xxooo..xo#ox.x#o#xx.x.o.oo..x..ox#..x.x.x.x...x.....o.#x.....o.o...x.x.o.x.x##..x#.x..o",
"xo..x#.oo...ox#..#...#oo.#xxo......x#..ox.##x..x#...o.x.xxo.....o..x...o..#..x.....xoxox...#...oxo#.#..x...x...xo..#x.#x#xo.xox#",
".xx...xo.#.#x..x..#x.oxxox.#.x.xox.x#.......o..xxo.o...xx#x.#oxx.xx.o....#xx..o.....o..o....#o.x.....##..x#x..o.ox.......xx.x.o.",
"o...o.xoxox..x.#.o...oo.#.ox.xxoox.x.x....o.oxo#o...oxxo....o#o....x...o.............o.o.....xx.o..##o.#..x.x...ox.#.#x#..xox##.",
"...x.o#..#x.xx...o.....oo.x....o..xx.#.o.x.#x..o#x#o#o.o..o.xx.#...o..o.#....xx.xx.x.ox#x#..#..o.#.#o..##xo..#.#o#.o..x...#...x#",
"..o.x..ooo..#.xx....xx.#..xxx.x#.##.x#.oox.x.o.xooxx#..x...x....x.#..oxoooo..#.x.#o.ox..o...x.oo.oxx.x.oo..oxxx#.o...o.xx..oxo..",
"x.o.o.#x.......xxx..#.#...o.#.xoo.ox...oxo.o..xooxo..........x#.#o#xx...#...x...#.o..x..#xooo..#..x.o...xo..#o..xo.#.x.o.o..x#xx",
".#.#ox.oxx.o.#.x.x.o...oxo.o...#.o..x.#ox.o#..xox.o..x.oxxxox..o#..oo.x.xx.o.x.xxo.x..o...xox..##x.#.#o.......#.xo...#o...oooxxx",
"#o.......o..#.xx.oooo.#x.x...oooo.....x.xx#oo.x#xx.#..o..x.o.oo...o..#.ox..oxoo#.x#..o.xo.....o..#ox.x.o.oox.x.##.xo.o....o.o.o.",
"....o..o.oxx.....#x.x....x#.#x..xoo#.ooo##x....#oox..o..o..o..##...xo....oo.#..xo..x...x#..xx.o..#x.oo...oo.x..ooo.o.ox..o#x..oo",
"o..o.#x...xoxxo.o..xo#oox..#oo.x#o..x...#x..#...x.x#.xoxo.x...ox...o..#xo..o#x...x..oxo....ox...xo....oxxxx.oo.x..ox.o.o..xx.xox",
"o.o..oxoo#.x...x....x.x#x.o...x...x#...o#..xo.x...o#oo.oo.o.#.o.xx..x...o.xx..o...#...o#.oox.o#...xo#oo#.#o..x.o.o#...xx....##o.",
"o.xo.x.x.#..oo.oxx.....oo#o#....ooxo..x#o....oooo#.oo...xo.xox.x...x#..##xo.ox##.o..#o.#..#.o#.x.#.#o.#...#.xx....xo.x......oxo.",
".#o..x......o.o.x.xoo#.x.x.o#x.oo.xx.o..ox.xxox.o.....x...xooo..xxx..o.o#.xx.......o..xx.#..x......x.xxo......#ooo..x.o.#.oxo...",
"#..o#..#.xox.o#o..xo.oo.x..xxxo...x.xo....o...o.#x..o...oo.#o.o...ox.oxo..xoox..x.x#.....x.xx#.o#xo.oxoo.oo.o..xo#..o....o#x....",
"ooo.oxo##..x.o#....#x..ox.o..xox#o..x.x....o#....o.#.o#oo.x.x....x.x...xx..o.xx.#...o.oxo#x#.o.#o.xooo.xo.#...x.xxoo#.x.#x..o...",
"o...ox...xo....o..xo#.o..xx#.oxoox.#.o.......xoo...#xxx.xo#.x#oo..o#x#...#o..##........x..#.x...x......o..o#...x.oo.....x....x.x",
"#.oo..o.xxxxoxoxoxx.oo..xo.xo...x...#xooo.xo....o.xxoxx..x.oxo#....o##ox.x#xo......#.o##o....xox.ox...oo..x....o#ox.o.x##xx.oo..",
"xx#.#oxxo.x.o.oox##o.ox.x#o.o.#...x...x#o..#.x..ox#xx...o....o.x.xxoxxo..xxx..o...x..xx#x.oxo.x.x..#x.#xo.o#o.ox...x..x...o.xoxo",
".##.o.o.xo...x.oo.#..ox#o.#x#.oxx..ox#....o.o.xo.xox..ox.oox..ox....oo.o#.x...o##..x.#...ooxo.o.ooo..x..x..x.o#x....x.xxo.#o.o.#",
".o..o.....oo#.....x..x...o..o.xx.x...xxox..#o.#x.o...o#xxxxx..o..x...o..#....x.x.x...o..o.x.....#...#.xoxx.o....#x..o.....o.#xxx",
"x#x.xoxox.##x#..oo..o.x..#x...xox....x...#.o#.xx###xx......x#x.#.x#x...oo.oo.....##o..xxo...##o....x..o.o..x.xx.oo.o.#.#..x.ox.x",
"x.x.xx#x..oxxxo##.....xx..o.xx...ox#x...oo.....o.oxoo..o...x....o.xx.ox#.o......o.o#oo##o.o..o......#xo.xx.x...ooo.#..xoo......#",
"....o.....xo#o..#o..ooox......x....x.o.x..x.##o.o.x.x..#x......x#x....oo#..x.x..#.oxo..xo...ox...oo..x...o..x.xooo#...oox...#..o",
"oo.xo......oxxxo.xoo.#ooooxx.oxoo#ooox..xxx.x#xo#...oxo..#...#xx.....o.o##x..x.o....x#...o....o...x...oo..ox#x.xoxoxx..xoxo#....",
"..x.xx.....o.o.xo.#.#o#.....o..x...o..........o...xo..oo.o...x..xoxo.o.#.#oo#o.xoxoo##x#x.o.o.#..x..#xo.x.o.xoo.x#x#x.x.xo.o.x..",
"oox.....o##x..o..xo.o....o.x...xoo.ox#..#xo.#x.x.o.o#xoxoxoo.o...x..xx.x.oo.x..#.x..xx.oxo.xox.x.#o#....o....x..#.#..#x.xoo###x.",
"#.oxo..xooox.#.#x.#o..o.#x.o...xxx...xxxx.o#..o..#xox......#.xx.ooo.o......xx.ox.#x.x#o#oo....o.o.oo...xx.o.x...o#.o..o.o#...#.x",
"x..#....xx......#ooxx.oooo..#o.#.x#xoo..oo....x..x..x....#.#ox..o.x....x...oooo.x...xox..#..##..oxo#..o....x..o.o#.#.x...o.ox#o.",
"..o.#.....o#.o....x#x.xoox...#.x..#.#x.....xoo#xx.o.o.x.x.xoxxo#...o...o#..oo#x...xx.#...o.......x...o..o..xxoox#..#x.#...#oooo.",
".xo.x..xx....o....x.x....oxooxo.o#oxx.o.#.x.......xx#ox.x....o#.oo##...xoo.ox...#.ox...#x.#oo...oxx.o...oooxx.oxo...o.#.x.x...o#",
".##o#..xxo.o..ox.xxx#x...oo.oo.x#oo...#o..#xxo..o.x..x...x.x#x.o...oxoo..o.xx#xo...o..o.x.....xo.#ox.#...xx#.o#.x..#x..xxo.o...o",
".o#o.o...ooxox..o..x...oo..xx#.....#.oo.x#.xo...x.x.o...x.x..x.o......x....#..xo.o.x......#.x....#x.o#.x.oo.o#...#..x..xoo#.ox..",
"#x#o.xxox#x#x......x.o.#o..o.........o.o.xx.x.oo.#oo.x..o...ox.o.o.x#...o.o#oooo.oxo#o..x.o..o#o.oo.xx.xx..o..#.o..oo##oxox..o#x",
"ox...#.oo..x..x.o..o....oxxx.ox#.#x.xxx#..o...oox..x...x.oo..ox..x.x..oo#..x...o...o#o..#..o.x##xx..ox#...xxx..xx..x....#x...#.o",
".#o.xx...xo.x..o.o#ooo.#...oo.xx...o.xx.....o..x.#.#.o.xxooo..ox..#xx...o#....o..x.o......xx#.x#.ooxx..o###.#...x..ox.o#...x..o.",
"oxo.oox.x.o.#oo##oo....ox.xx#x.o#..x#..xoxo....xx.x....xoo.#..x.x#xx.o...ox.xoo.#.oox.x.x#..#x..#..x.o..x.xx.xx#...#.......xx.xo",
"ox#x.#.......ox...oo..oxo.oxx.x.o..x.o.o.x#.o.xx..o##xo..ox....x.#oo........o...x.o.#.xoox.oox..#x...o....oxoxxxx...o.o.x..oo...",
".ooxo..xx.....o..#.x.x#.ooo#.o.x..#o.x.xx.o.oo.xo..#..o.x....o#.#oo#xo....o...xx.o.#xo..x#o...xx..xx.xx.xx.x#.oo.xoooo......#..o",
"#.xoo.ooo.ooo#.x#o.ox...#oo..x.o#.....xo..x......xx...oox.#o..#xoo..o...o.#o#o....x#..#.ox.oxo#...o.xo.......oxx........xo..o#..",
".#xxoo...#..x..oo.x#o..ooo..#..xo#...#.x.ooo.x.o.x.#.#.xox#.xo.x.o...#oo.x...x.#....xo#o##.o#..xx.xxo..#x.#xoo....x.xx#x..x..x##",
"..xooo##o.o#....##oox.xx.x...#..x#oxo#o#.x.o......oo..#o.o#x#o...oo.x.oo.#o..o..x#..oxx.o#.o#.....#xo.#o.o.o..x#.oxo.o...o..x...",
"x.#.o....o#x..o.x.xx.xo.o#....x..o....xx.#o#x.#xo#o...xo.xo.o.x.oxx...xo....x...x.x.x#.o.x.o#o..o..x.oxxx#o.o..oo...x.x.x...o#..",
"#o.xox.oxx#....o..xoooooxxxx.xx#..o#o##.#..ooo.#....o.xo.o#.#xx.#.xo#xx....xoxx..x......x..#.o#.xox#......#...oo...ooo.x.#xxo..o",
"..#.x..o.xx.#o..x..#.oxxo#...o.x.xo.xox.ooxo#xoo#x.oo..#.o..o.xox#x.......o...x...oo....o..x.o.xx.x.o..xx...x.x.oo...x.#..xx...o",
};