/* XPM */
static char *otaru_canal[] = {
"128 128 8 1",
". c #87CEEB"
"x c #708090"
"o c #B22222"
"# c #8B4513"
"w c #4682B4"
"s c #FFFAFA"
"l c #FFD700"
"d c #696969"
/* pixels */
"................................................................................................................................",
"................................................................................................................................",
"................................................................................................................................",
"................................................................................................................................",
"................................................................................................................................",
"................................................................................................................................",
"................................................................................................................................",
"................................................................................................................................",
"................................................................................................................................",
"................................................................................................................................",
"................................................................................................................................",
"................................................................................................................................",
"................................................................................................................................",
"................................................................................................................................",
"................................................................................................................................",
"................................................................................................................................",
"................................................................................................................................",
"................................................................................................................................",
"................................................................................................................................",
"................................................................................................................................",
"................................................................................................................................",
"................................................................................................................................",
"................................................................................................................................",
"................................................................................................................................",
"................................................................................................................................",
"................................................................................................................................",
"................................................................................................................................",
"................................................................................................................................",
"................................................................................................................................",
"................................................................................................................................",
"xxxxxxxxxxxxxxxxxxxxxxxxxxxxxxxxxxxxxxxxxxxxxxxxxxxxxxxxxxxxxxxxxxxxxxxxxxxxxxxxxxxxxxxxxxxxxxxxxxxxxxxxxxxxxxxxxxxxxxxxxxxxxxxx",
"xxxxxxxxxxxxxxxxxxsxxxxxxxxxsxxxxxxxxxxxxxxxxxxxxxxxxxxxxxsxxxxxxxxsxxxxxxxxxxxxxxxxxxxxxxxxxxxxxxxxxssxxxxxxxxxxxxxxxxxxxxxxxxx",
"xxsoooooooooooooooooooooooooooooxxoooooooosoooooooooooooooooooosxxooooooooooooooooooooooooooooooxxoooooooooooooooooooosooooooooo",
"xxooooooooooooooooooooosooooooooxxoooooooooooooooooooooosoooooooxxooooooooooooooooooooooooooooooxsoooooooooooooooooooooooooooooo",
"xxoooooosoooooooooooooooooooooooxxoooooooosoooooooooooooooooooooxxoooooooooooosooooosooooosoooooxxoooooooooooooooooooooooooooooo",
"xxooooooooooooooooooooooooooooooxxoooooooooooooooooooooooooosoosxxoooooooooooooooooooooossooooooxxooooooooosoooooooooooooooooooo",
"xxooooooooooooooooooooooooooooooxxooooooooooooooooooooooooooooooxxsoooooooooooooooooooooooooosooxxoooooooooooooooooooooooooooooo",
"xxooooooooooooosooooooosooooooooxxsooooooooooooooooooooooooooooosxooooooooooooooooooooooooossoooxxsooooooooooooooooooooooooooooo",
"xxooooooooooooooosoooooooooooooosxooooosooooooooooooooooooooooooxxoooooooooooooooooooosoooooooooxxoooooooooooosooooooooooooooooo",
"xsoooosoooooooooooooooooooosooooxxooooooooooooooooooosooooooooooxxooooooooooooooooooooooooooosooxxoooooooooooooooooooooooooooooo",
"xxooooooooooooooooooooooooooooooxxooooosooooooooooooooooooooooooxxooooooooooooooooooooooooooooooxxoooooooooooooooooooooooosooooo",
"xxoooooooosooooooooooooosoooooooxxoooooooooooooooooooooooooosoooxxooooooooooooooooooooooooooooooxxsooooooooooooosoooooooosoooooo",
"xxooooooooooooooosoooooooooooooossooooooooossoooooooooooooooooooxxoooooooooooooooosoooosoooosoooxxooooooooooooooooosooooooooosoo",
"xxoosooooooooooosoooooooooooooooxxooooooooosoooooooooooooooooooosxosooooooooooooooooooooooooooooxxooooooooosoooooooooooooooooooo",
"xxsooosoooooooooooooooooooooooooxxooooooooooooooooooooososooooooxxoooooooooooooooooooooosoooooooxxooooooooooooooooooooooooooosso",
"xxxxsxxxxxxxxxxxxxxxsxxxxxxxxxxxxxxxxxxsxxxxxxsxxxxxxxxxxxxxsxxxxxxxxxxxxxxxxxxxxxxxxxxxxxxxxxsxxxxxxxxxxxxxxxxxxxxxxxxxxxxxxxxx",
"xsxxxxxxxxxxxxxxxxxxxxxxxxxxxxxxxxxxxxxxxxxxsxsxxxxxxxsxxxxxxxxxxxxxxxsxxxxxxxxxxxxxxxxxxxxxxxxxxxxxxxxxxxxxxxxxxxxxxxxxxxxxxxxs",
"xsooooooooooooooooooooooooooooooxxooooooooooooooooooooooooooooooxxooooooooooooooooooooooooooooosxxoooooooooooooooooooooooooooooo",
"xxosooooooooooooooooooooooooooooxxoooooosoooooooooooooooooooooosxxooooooooooooooooooooooooosooooxxosoooooosoooooosoooooooooooooo",
"sxooooooooooosoooooooooooooosoooxxoooooooooooooooooooooooooooooosxooooosooooooooooooooosooooooooxxoooooooooooooooooooooooooooooo",
"xxooooooooooooooooooooooooooooooxxoooosoooooooooooooooooooooooooxxoososooooooooosoooooooooooooooxxoooooooooosooosoooooooooooosoo",
"xxooooooosoosoosoooosoooooosooooxxooooooooooooooooooooooooooooooxxoooooooosooooooosoooooooooosooxxoooooosooooooooosooooosoooooos",
"xxoooosooooooooooooooooooooosoooxxooooooosooooooooooooooooooooooxxooooooooooooooooooooooooooooooxxooosooososoooooooooooooooooooo",
"xxooooooooooooooooooooooosooooosxxoooooosoooooooooooooooooooooooxxooooooooossoooooooooooooooooooxxoooooooooooooooooooooooooooooo",
"xxooooooooosoooooooooooooooosoooxxosoooooooooooooooooooooooosoooxxooooooooooooooosooooooooooooooxxoooooooooooooooooooooooooooooo",
"xxossoooooooooooooooooosooooooooxxoooooooooooooooooooooooosoooooxxoooooooooosoooooooooooooooosooxsooooooooooooooooooooooosoooooo",
"xxoosoooooooooooooooooooooooooooxxooooooooooooooooooooooooooooooxxooooooooooooooooooooooooooooooxxsoooooooooooooooooooooosoooooo",
"sxsoooooooooooooooooooooooooooooxsooooooooooooooooooooooooooooooxxoooosoooooooooooooooooooooooooxxoooooosoooooooooooooooooooooos",
"xxooooooooooosooooooooooooooooooxxooooooooooooooooooooooosoosoooxxooooooooooosoosoooooooooooooooxxooosooooooooooooooooooooooosoo",
"xxooosoooooosoooooooooooooooooooxxooooooosooooooooosooooooooooooxxooooooooooooooooooooooooooooooxxoosooooooooosoosoooooooooooooo",
"xxxxxxxxxsxxxxxxxxxxxxxxxxxxxxxxxxxxxxxxxsxxxxxxxxxxxxxxxxxxxxxxxxxxxxxxxxxxxxxxxxxxxxxxxxxxxxxxxxxxxxxxxxxxsxxxxsxxxxxxxxxxxxxx",
"xxxxxxxxxxsxxxxxxxxxxxxxxxxxxxxxxxxxxxxxxxxxxxxxxxxxxxxxxxxxxxxxxxxxxxxxxxxxxxxxxxxxxxxxxxxxxxxxxxxxxxxxxxxxxxxxxxxxxxxsxsxxxxxx",
"xxooooooooooooooooosooooooooooooxxooooooooooooooooooooosooooooooxsooooooosooooooooooooooooooooooxxoooosooooooosooooooooooooooooo",
"xxoooooooooooooooooosoooooooooooxxoooooosooooooooosoosooooooooooxxooooooooooooooooosooooosooooosxxoooooooooooooooooooooooooosooo",
"xxoooooooooosooooooooososoooooooxxooooooooooooooooooooooooooooooxxosooooooooooooooosooooooooooooxxoooooosooooooosoooooooooosoooo",
"xxooooooooooooooooooooooooooooooxxosoooooooooooooooooooooosooosoxxooooooooooooooooooooooooooooooxxoooooosooooooooooooooooooooooo",
"xsooooooooosooooooooooooooooooooxxoosoooooooooooooosooooooooooooxxooooooooooooooooooooooooooooooxxoooooooosoooooooooooooooooooso",
"xxooooooooooooooooooooooooooooooxxooooooooooooosooooooooooooooooxxooossooosoooooooooosooooooooooxxoooooooooooooooooooooooooooooo",
"xxooooooooooooooooooooooooooooooxxooooooosooooooooooooooooooooooxxooooooooooooooooooooooooooooooxxooooosoooooooosoooooosoooooooo",
"xxooooosoooooooooooosoooosooooooxxoooooooooooooooooooooosoooooooxxooooooooooooooooooooooooooooooxxooooosoooooooooooosooooooooooo",
"xxoosooooosooooooooosoooooooooooxxooooooosooooooooosooooooooooooxxooooooooooooooooooooooooooooooxxoooooooooooooooooooooooooooooo",
"xxooosoooooooooooooooooooosoooooxxoooooooooososoooooooooooooooooxxooooooooooooooooosooooooooooooxxosooooosooosoooooooooooooooooo",
"xxoooooososoooooooooosooooooooooxxooooooooooosoooooooosoooooooooxxooosooooooooooooosooooooooooooxxoooooooooooooooooooooosooooooo",
"xxoooooooooossooooooooooooooooooxxooooooooooooooooooooooooooooooxxooooooosooosooooooooooooooooooxxooooooooooooooooooooosoooooooo",
"xxooooooooosooooooooosooooosooooxxoosoooooooooooooooooooooooooooxxoooooooooooooooooooooooooosoooxxoooooooooooooooooooooooooooooo",
"sxsxxxxxxxxxxxxxxxxxxxxxxxxxxxxxxsxsxxxxxxxxxxxxxxxxxxxxxxxxxxxxxxxxxxxxxsxxxxxxxxxxxxxxxxxxxxxxxxxxxxxxxsxxxxxxxxxxxxxxxxxxxxxx",
"xxsxxxxxxxxxxxxsxxxxxxxxxxxxxxxxxxxxxxxxxxxxxxxxsxxxxxxsxxxxxxxxxxxxxxxxxxxxxxxxxxxsxxxxxxsxxxxxxxxxxxxsxxxxxxxxxsxxxxxxxxxxxxxx",
"xxooooooooooosooooooooooooooooooxxoossoooooooooooooosooooooooooosxoooossooooooooooooooooooooooooxxoooooooooooooooooooosooooooooo",
"xxooooosooooooooooooooooooooooosxxooooooooooooooosoooosooooooooosxooooooooooooooooooooooooooooooxxoooooooooooooooooooooooooosooo",
"xxooooooooooooooooooooooooooooooxxooooooooooooooooooooooooooooooxxooooooooooooooooooooooooooooooxxoooooooosooooooooooooooooooooo",
"xsooooooooooooooooooooooooooooooxsooooooooooooooooooooooooooooooxxooooooooooooooooooooooooooooooxxooooooooooooooosoooooooooooooo",
"xxooooooooooooooooooooooooooooooxxooooooooooooooooooooooooooooosxxooooosooooooooooooooosooooooooxxooooooooooooooooooooooooooooos",
"xsooooooooooooooooooooooooooooooxxooossooooooosoooooooooooooooooxsooooooooooooooooooooooooooooooxxoooooooooooooooosooooooooooooo",
"xxooooooooooooooooosooooooooooooxxsoooooooooooooooooooooooooooooxxooooooooooooooooosoosoooooooooxxoooooooooooooooooooooooooooooo",
"xxosoooooooooooooooooooooosoosooxxoooooooosoooosoooooooooosoooooxxoososoooooooooooooooooooooooooxxoooooooooooooooosooooooooooooo",
"xxooooooooosooooooooooooosooooooxxooooooooooooooooooooooooooooooxxooooooooooooooooooooooooooosooxxooooooooooooooooosoooooooooooo",
"xxooooooooooooooooooooooooosooosxxoooooossooooooooooooooooooooooxxoooooosoooooooooooooooooooooooxxoooooooooooooooooooooooooooooo",
"xxooooooosoooooooooooooooooosoooxxooooooooooooooooooosooooooooooxxoosoosooooooooooooooooooooooooxxoooooooooooooooooooooooooooooo",
"xsoooooooooosoosoooooooooooooooosxooooooosooooooooooooooooooooooxxooooooosooooooooooooooooooooooxxoooosoooosoooooooosooooooooooo",
"xxoooooooooooooooooooooooooooosoxxooooooooossoooosooooooooooooooxsoooooooooooooooooosoooooooosooxxooooooooooosoooooooooooooooooo",
"dddddddddddddddddddddsdddddddddddddddddddddddsdddddddddddddddddddddddddddddddddsdddddddddsdddddddddddddddsdddddddsdddddddddddddd",
"dddddddddsdddddddddddddddddddddddddddddddsddsdddddddddddddddsdddddsddddddddddddddddddsddsddddddddddddddddsddddddsdddddsddddddddd",
"ddsdddddddddddddddddddddddddddddsddddddddddddddddddddsdddddddddddddddddddddsdddddddddddddddddddddddddddddddsdddddddddddddddddddd",
"dddsdddddddddsdddddddsddsdddddddddsdddddddddddddddddddddddddddddddsddddddddddddsddddddddddddddddddddssdddsdddddsdddddddsddddddsd",
"ddddddddsdddddddddsddddddsddddddddddddddddddddddddddddddddddddddddddddddddddddddddddddddddddddddddddddddddddddddddddddddddddddds",
"ddsddddddddddddddddddddddddddddddddddddddddddddddddddddddddddsdddddddddsdddddddddddddddddddddddddddddddddddddddddddddddddddddddd",
"dddddddddddddddsddddddddddddddddddddddsdddsddsdddddddddddddddddddddddddddddddddddddddddddddddddddddsdddddddddddddddsdddddddddddd",
"ddddddddddddddddsdddddsdddddddddddsddddddddddddsddddddsddddddddddddddddddddddddddsdddddsdddddddddddddddsdddddddddddddddddddddsdd",
"ddddddddddddddddddddddsddddddddsdddddddddddddddddddddsddddddddddddddddddddddddddddddddddddddddddddddsdddddddddddsddddddddddddddd",
"dddddddddsdddddddddddddddddddddddddddddddddddddsddddddddddddddddddddddddddddddddddddddddddsddddddddddddsddddddddddddddddddddddds",
"ddddddddddddddddldddddddddddsdddddddddddddddddddlddddddddddddddddddsddddddddddddlddddsddddddddddsddddddddddsddddldddsdddddddddds",
"ddsddddddddddddddddddsdddddddddddddddddddddddddddddddddddddsdddddddddddddsdddddddddddddddddddddddddddddddddddddddsdddddddddddddd",
"ddddddddddddddsddddddddddddddddddddddddsddddddsddddddddddddsddsddddddddddddddddddddddddddddddsdddddddddddddddddddddddddddsdddddd",
"ddddddddddddddsdsddddddddddddddddddddddddddddddddddddddsddsdddddddssdddddddsddddddddddddddddddddddddddsdddddsdsdddddsdddsddsdddd",
"dddddddddddddddddddddddsdddddddddddddddsdddddsddddddddddddddddddddddddddddddddddsdddddddddddddddddddddddddddddsdddddddddddddddds",
"dddddddddddddddddsdddddsdssdddsddsddddddddddddsddddddddddddddddddddddddddddddddddddddddddsddddsdddddddddddddsddddddddddddddddddd",
"dddddddddddddddddddddddddddddddddddddddddsddsdddddddddddddddsddddddddddddddddddddddddddddddddsdddddddddsdddddddddddddddddddddddd",
"dddddddddddddddddddddddsdddddddddddddddsddddddddsddddsddddddddddddddddddddsddddddddddddddddddddddddddddddddddddddsddsdddddsddddd",
"ddddddddddddddddddddsdddddsdddddddddddddddddddddddddddddddddsdddddddddddddddddddddddddddddddddsdddddddddddddddddssdddddddddddddd",
"ddddddddddddddddddddddddddddddddddddsdddsddsddddsddsddddddddsdddddddddddddddddddddddsdddddddddsddddddsdddddddddddddddddddddddddd",
"wwwwwwwwwswwwwwwswwwwwwwwwwwwwwwwwwwwwwwwwwwwwwwwwwwwwwwwwwwswwwwwwwswwwwwwwwwwwwswwwwwwwwwwwwwwwwwwwwwwwwwwwwwwwwwwwwwwswwwwwww",
"#ww#swwwwww#wwwwwwwwwwww#wsww#w#w#www#wwwwwwwwwwwwwwwwww#wswwwwwwwwwwwwwwwww##swwwwwww#wwwwww#sww#wwwwwwwwwwwwwwwww#ww#wwwswwwws",
"wswww#wwwwwwwwsww#wwwwwwwwwwwwwwwwwwww#wwwwww#wwwwwwwwwwwwwwwwwwwwww#wwwww#wwwwwws#wwwwwwwwwswwwwwwww#swwwwwwwwwww#wwwww#w#wwws#",
"w#w#wwwww#ww#wwwwwwwsww#w#w#wwww#ww#wwwwwwwww#wwwwwwwswwww#wwwwwwwwwwwwswwwwwsswwwws#wwwswwwwwwwww#ww#wwwwww#w#wwwwwwwww#wwww#ww",
"#wwwwwswwww#www#wwwwww#wwwwwwwwwww#swwwwwww#sw#ww#wwwwwswwwwwwwwwwwwwwwwwww#www#wwwwwwwwwwwwww#ww#wwwwwwwwwwswwwwwwwwwwwwwww##ww",
"wwwwwwww#wwwwsw#wwwwwwwwwwwwwwwwwwwwwwwwww#swwwwwwswww#wwwwwswwwwwwwwwwwwww#wwwww#wwwww#wwwwwwwswwwwwww#wwwwwww#wwwwwwswwwwwwwsw",
"wwwwww#w#wsw#wwwwwwwwswww#wwwwwww#wwwwwwwwwwwwwwwww#wwwwwwwwswwwwwwwwwwwwwwwwwwwwww#swwwwww#wwwwwwwwwwww#wwwwwwswww#wwww##w#wwww",
"www#sww#wwwwwwwwwwwwwwwswww#swwwwww#w#wwwwwwwwwwwws#wwswwwwwwwwwwwwwwwwswwwswwwwwwwwww#wwwww##wwwwwswwsww#wwwsw#wwwwww#www#wwwww",
"wwww#w#wwwwww#wwwww#ww#wwwwwwww#wwwwwwswwwwwwwwwwwwwwwswsw#wwwwwswswwwwwwwwwwww#w#wwwwwwwww##wwwwww#wwswwwwwwwwwswwwwwww#sw#wwww",
"sswsw##wwwswswwww#swwwwwwwwwwwwwwwwwswwwwwwwwwwwwwwwwwwww#wwwwwwwwww#sw#wwwwwwwwwwwwww#ww#wwwwwwwwwwww#wwwwwwwwww#ww#www#wwww#ww",
"wwwwwwwww#wwwwwwwwwwww##wwwwwwwswwww#wwwwwss##wwwwwww#ww#sww#wwwwwwwwwwwwwwwwwwwwwwwwww#wwwww#wwwwwwwwwwwwwwwwwwwwwwww#wwwwwwwww",
"wwwwwww#wwwwwww#wwww##wwwsswwwwwwwwwwwwww#wwwsw#www#ww#www#wwwwwwwwwwwwsw#wwwwwwwwwwww##wwwwwwwwwwwwww###wwwwww##www#w#ww#wwwwws",
"swwwwwwwwwwwwwwws##wwwwwwwwwwwwwww#wwswwwwwwwwwwwwswww##wwwwwwwwwwwwwwwwww#wwwwww#wwwwwwwwwwwww#wwwswswwwwwwwwwwwwwwwwwwwwwwsww#",
"wwsww#wwwwwwwwwwww#wwwwww#www#www#wwwwwwwwww#wwwwwwwwwwwwww#ww#wwwwwwwww#wwwwwww##ww#ww##w#wwwwwww#wwwwwww#wwwwwwwwwwswwwwwwwwss",
"wwswwwwwwswwww#wwwwwwwwwwwwwwww#wwswwwwwww##w#wwwwwwwwwwww##wwwwwwwwwwww#wwwwwww#wwwwwwwwww#wwwww#wwwwwwwwwwwwwwwww#ww#w#sw#swww",
"wwwwwwwws#wwwwwwwwwwwwwwww##wwwwwwwssww#wwwwwwww#wwwwswwwwwwwwwswww#wwwwwwwwwwww#wwwwwwwww#swwwwwwwwswww#sww#wsswwwwwwwsswwwwww#",
"#wwswwwwwww#wwww#wwsw#ww#wwwwwwwwwwwwwwww##wwwwwwwwww#wwwsww#wswwwwwswwwww#wwwwwwwww#ww###wwwwww#ww##ww#wwwwwwwwwwwswwwwwws#wwww",
"swswwwww#wwwwww#wwwwwwwwwwwwwwww#wwwwwwwwwwwwwww#w##w#ww#wwwwwwwww#wwwwwwwwwww#wwwwwwwwwwwwww#wwsww#wwwwwwwwwwwwwwwwwwwwwwwwwwww",
};