/* XPM */
static char *image[] = {
"32 32 9 1",
"( c #f0f0fa",
") c #b49664",
"* c #644628",
"+ c #ffffff",
", c #ffffff",
"- c #a08250",
". c #ffffff",
"/ c #503214",
"0 c #ffffff",
"(((((((((((((*******(+((((((((((",
"((,((((((((((***..00+++(((((((((",
".,,,(((((((((***..00(+((((((((((",
"..,,,(((((,((*******(+(,,(((((((",
"(((,(((((,,,(*******+++,,((..(((",
"(((+(((((+,,(*******(+(((((..(((",
"((+++(((+++,(*******(((((0((..(,",
"(((+(00((+(((*******((((000(..((",
"(((((00((,+++*.***++(((((0(((,,(",
"(((((((((,+++...++++,,(,,((((,,,",
"/(((((((((((+*.,++0*,,(,,(((((((",
"////(((((((((*,,****++(((((((///",
"(((///((((.(,*******(((((((///+(",
"((((+////..,,,******((((////(+++",
"(+++++++///.,*******((///(((((+(",
"++++++++((////*****////(((((..((",
"(+++(,+((((,,/**.+0/0(((00((..(+",
"((((,,,(((((,**...*00((,00(((((.",
"((.((,((((((())).))000,,,((((++(",
"(...(+,(((()))))))))0)(,((.((++(",
"((.(+,,,(()))))))))))))((...(,,(",
"(((((+,(()))))-----)))))((.((,,(",
"((((((((0))))-------)))))+++((((",
"((+((((0,,))---------))))(+..(((",
"(++00(((,,)-----------)))((..(,,",
"((+,,((()))-----------)))(((((,,",
"((+,,((())))---------))))(((((,,",
"(+++((((())))-------))))00(((,,,",
"((+++((((())))-----))))(0,(((,,(",
"(((++((..(()))))))))))((,,,((,((",
"((((((...((++)))))))(((((,((,,,(",
"((((((++++(++*******(((((((,,,((",
};
