/* XPM */
static char *shima_enaga[] = {
"128 128 5 1","  c None"
". c #FFFFFF"
"x c #000000"
"o c #FFC0CB"
"# c #FFD700"
/* pixels */
"                                                                                                                                ",
"                                                                                                                                ",
"                                                                                                                                ",
"                                                                                                                                ",
"                                                                                                                                ",
"                                                                                                                                ",
"                                                                                                                                ",
"                                                                                                                                ",
"                                                                                                                                ",
"                                                                                                                                ",
"                                                                                                                                ",
"                                                                                                                                ",
"                                                                                                                                ",
"                                                                                                                                ",
"                                                                                                                                ",
"                                                       ...................                                                      ",
"                                                   ...........................                                                  ",
"                                               ...................................                                              ",
"                                             .......................................                                            ",
"                                           ...........................................                                          ",
"                                         ...............................................                                        ",
"                                       ...................................................                                      ",
"                                     .......................................................                                    ",
"                                    .........................................................                                   ",
"                                   ...........................................................                                  ",
"                                 ...............................................................                                ",
"                                .................................................................                               ",
"                               ...................................................................                              ",
"                              .....................................................................                             ",
"                             .......................................................................                            ",
"                            .........................................................................                           ",
"                           ...........................................................................                          ",
"                          .............................................................................                         ",
"                         ...............................................................................                        ",
"                         ...............................................................................                        ",
"                        .................................................................................                       ",
"                       ...................................................................................                      ",
"                      .....................................................................................                     ",
"                      .....................................................................................                     ",
"                     .......................................................................................                    ",
"                     .......................................................................................                    ",
"                    .........................................................................................                   ",
"                    .........................................................................................                   ",
"                   ...........................................................................................                  ",
"                   ...........................................................................................                  ",
"                  .............................................................................................                 ",
"                  .............................................................................................                 ",
"                 ...............................................................................................                ",
"                 ...............................................................................................                ",
"                 ...............................................................................................                ",
"                 ......................................x.................x......................................                ",
"                .......................................x.................x.......................................               ",
"                .......................................x.................x.......................................               ",
"                .......................................x.................x.......................................               ",
"                .......................................x.................x.......................................               ",
"               ..............................ooooo............................ooooo...............................              ",
"               ..............................ooooo............................ooooo...............................              ",
"               ..............................ooooo............................ooooo...............................              ",
"               ..............................ooooo............................ooooo...............................              ",
"               ..............................ooooo............................ooooo...............................              ",
"               ..............................ooooo............####............ooooo...............................              ",
"               ..............................ooooo............####............ooooo...............................              ",
"               ..............................ooooo............####............ooooo...............................              ",
"               ..............................ooooo............####............ooooo...............................              ",
"               ..............................ooooo............####............ooooo...............................              ",
"               ...................................................................................................              ",
"               ...................................................................................................              ",
"               ...................................................................................................              ",
"               ...................................................................................................              ",
"               ...................................................................................................              ",
"               ...................................................................................................              ",
"               ...................................................................................................              ",
"               ...................................................................................................              ",
"               ...................................................................................................              ",
"                .................................................................................................               ",
"                .................................................................................................               ",
"                .................................................................................................               ",
"                .................................................................................................               ",
"                 ...............................................................................................                ",
"                 ...............................................................................................                ",
"                 .............xxxxxxxxx...................................................xxxxxxxx..............                ",
"                 .............xxxxxxxxx...................................................xxxxxxxx..............                ",
"                  ............xxxxxxxxx...................................................xxxxxxxx.............                 ",
"                  ............xxxxxxxxx...................................................xxxxxxxx.............                 ",
"                   ...........xxxxxxxxx...................................................xxxxxxxx............                  ",
"                   ...........xxxxxxxxx...................................................xxxxxxxx............                  ",
"                    ..........xxxxxxxxx...................................................xxxxxxxx...........                   ",
"                    ..........xxxxxxxxx...................................................xxxxxxxx...........                   ",
"                     .........xxxxxxxxx...................................................xxxxxxxx..........                    ",
"                     .........xxxxxxxxx...................................................xxxxxxxx..........                    ",
"                      ........xxxxxxxxx...................................................xxxxxxxx.........                     ",
"                      ........xxxxxxxxx...................................................xxxxxxxx.........                     ",
"                       .......xxxxxxxxx...................................................xxxxxxxx........                      ",
"                        ......xxxxxxxxx...................................................xxxxxxxx.......                       ",
"                         .....xxxxxxxxx...................................................xxxxxxxx......                        ",
"                         .....xxxxxxxxx...................................................xxxxxxxx......                        ",
"                          ....xxxxxxxxx...................................................xxxxxxxx.....                         ",
"                           ...xxxxxxxxx...................................................xxxxxxxx....                          ",
"                            ..xxxxxxxxx...................................................xxxxxxxx...                           ",
"                             .xxxxxxxxx...................................................xxxxxxxx..                            ",
"                              .....................................................................                             ",
"                               ...................................................................                              ",
"                                .................................................................                               ",
"                                 ...............................................................                                ",
"                                   ...........................................................                                  ",
"                                    .........................................................                                   ",
"                                     .......................................................                                    ",
"                                       ...................................................                                      ",
"                                         ...............................................                                        ",
"                                           ...........................................                                          ",
"                                             .......................................                                            ",
"                                               ...................................                                              ",
"                                                   ...........................                                                  ",
"                                                       ...................                                                      ",
"                                                                                                                                ",
"                                                                                                                                ",
"                                                                                                                                ",
"                                                                                                                                ",
"                                                                                                                                ",
"                                                                                                                                ",
"                                                                                                                                ",
"                                                                                                                                ",
"                                                                                                                                ",
"                                                                                                                                ",
"                                                                                                                                ",
"                                                                                                                                ",
"                                                                                                                                ",
"                                                                                                                                ",
};